<svg xmlns="http://www.w3.org/2000/svg">
<defs>
<font id="UTMDaxlineBold" horiz-adv-x="1282" >
  <font-face 
    font-family="UTM Daxline"
    font-weight="700"
    font-stretch="normal"
    units-per-em="2048"
    panose-1="2 4 6 3 5 5 6 2 2 4"
    ascent="1638"
    descent="-410"
    x-height="1104"
    cap-height="1483"
    bbox="-116 -465 4942 2232.08"
    underline-thickness="109"
    underline-position="-251"
    unicode-range="U+0020-2212"
  />
<missing-glyph horiz-adv-x="5040" 
d="M3351 2045h10q37 -10 37 -52q0 -12 -32 -57h-28q0 24 28 54l2 10q-5 13 -10 15h-9q-8 0 -10 -19h-30q6 49 42 49zM2019 2016l29 -31q0 -16 -40 -30h-19l-59 12l-11 -12l-28 25q11 29 43 29h11l42 -11h2q10 0 30 18zM468 1980h142v-60h-94v-75h89v-59h-89v-129l-5 -5h-49
v323zM1155 1980h43l6 -5v-78h30v-52h-30v-188l-6 -5h-49v193h-25v52h25v78zM1621 1980h42l4 -5v-94h3q23 24 54 24h2q58 0 83 -71l2 -39v-143h-52v115q0 80 -42 80h-7q-43 0 -43 -86v-109h-51v323zM2200 1980h49l5 -5v-222q10 -51 45 -51q44 7 44 59v214l5 5h49v-216
q0 -85 -66 -112q-15 -8 -35 -8q-47 0 -82 55q-14 24 -14 57v224zM2435 1980h159v-60h-56v-268h-53v268h-55v55zM2621 1980h71q7 -4 83 -251h2l80 251h73v-328h-54v242h-2l-74 -242h-44q-4 0 -58 182l-19 60h-3v-242h-55v328zM3760 1980h52v-328h-45l-5 5v11l3 2l-3 14
q-29 -40 -78 -40q-67 0 -100 91l-5 39v3q0 94 92 125l23 3q35 0 63 -32h3v107zM2057 1928h36l4 -6v-49h-45v-221h-48v23q-23 -31 -59 -31q-89 14 -89 97v156h51v-104q0 -79 26 -86l18 -5h6q26 0 39 36l3 26v133h53v25zM3476 1928v-55h-31v-221h-47v25h-2q-15 -33 -57 -33
q-68 0 -86 78l-3 29v146h52v-120q0 -50 19 -68l21 -7h9q42 0 42 69v126h27q4 0 4 28l3 3h49zM758 1905q68 0 103 -77q9 -18 12 -54q0 -88 -90 -127l-32 -3q-63 0 -101 73q-12 22 -12 52v10q0 94 101 126h19zM1011 1905h3q74 0 83 -101v-152h-51v119q0 76 -42 76h-5
q-44 0 -44 -76v-119h-52v245h46v-21q30 29 62 29zM1466 1905h7q72 0 105 -89h-60q-16 31 -42 31h-17q-53 -14 -53 -61l-3 -15q12 -69 61 -69h9q22 0 47 27h40l2 3h3l2 -3l2 3l3 -3l2 3l2 -7q-33 -81 -110 -81q-76 0 -110 94l-4 36v3q0 85 77 120q15 8 37 8zM3141 1905h2

<glyph glyph-name=".notdef" horiz-adv-x="5040" 
d="M3351 2045h10q37 -10 37 -52q0 -12 -32 -57h-28q0 24 28 54l2 10q-5 13 -10 15h-9q-8 0 -10 -19h-30q6 49 42 49zM2019 2016l29 -31q0 -16 -40 -30h-19l-59 12l-11 -12l-28 25q11 29 43 29h11l42 -11h2q10 0 30 18zM468 1980h142v-60h-94v-75h89v-59h-89v-129l-5 -5h-49
v323zM1155 1980h43l6 -5v-78h30v-52h-30v-188l-6 -5h-49v193h-25v52h25v78zM1621 1980h42l4 -5v-94h3q23 24 54 24h2q58 0 83 -71l2 -39v-143h-52v115q0 80 -42 80h-7q-43 0 -43 -86v-109h-51v323zM2200 1980h49l5 -5v-222q10 -51 45 -51q44 7 44 59v214l5 5h49v-216
q0 -85 -66 -112q-15 -8 -35 -8q-47 0 -82 55q-14 24 -14 57v224zM2435 1980h159v-60h-56v-268h-53v268h-55v55zM2621 1980h71q7 -4 83 -251h2l80 251h73v-328h-54v242h-2l-74 -242h-44q-4 0 -58 182l-19 60h-3v-242h-55v328zM3760 1980h52v-328h-45l-5 5v11l3 2l-3 14
q-29 -40 -78 -40q-67 0 -100 91l-5 39v3q0 94 92 125l23 3q35 0 63 -32h3v107zM2057 1928h36l4 -6v-49h-45v-221h-48v23q-23 -31 -59 -31q-89 14 -89 97v156h51v-104q0 -79 26 -86l18 -5h6q26 0 39 36l3 26v133h53v25zM3476 1928v-55h-31v-221h-47v25h-2q-15 -33 -57 -33
q-68 0 -86 78l-3 29v146h52v-120q0 -50 19 -68l21 -7h9q42 0 42 69v126h27q4 0 4 28l3 3h49zM758 1905q68 0 103 -77q9 -18 12 -54q0 -88 -90 -127l-32 -3q-63 0 -101 73q-12 22 -12 52v10q0 94 101 126h19zM1011 1905h3q74 0 83 -101v-152h-51v119q0 76 -42 76h-5
q-44 0 -44 -76v-119h-52v245h46v-21q30 29 62 29zM1466 1905h7q72 0 105 -89h-60q-16 31 -42 31h-17q-53 -14 -53 -61l-3 -15q12 -69 61 -69h9q22 0 47 27h40l2 3h3l2 -3l2 3l3 -3l2 3l2 -7q-33 -81 -110 -81q-76 0 -110 94l-4 36v3q0 85 77 120q15 8 37 8zM3141 1905h2
q49 0 70 -60v-14h-52q0 16 -16 16h-4q-14 0 -19 -13v-13q0 -9 68 -35q30 -19 30 -59q0 -58 -61 -80l-23 -3q-76 12 -76 83h54q0 -20 27 -25h4q19 0 24 23q0 22 -68 44q-34 27 -34 59q0 66 74 77zM4203 1905q55 0 77 -63q7 -18 7 -65v-125h-52v112q0 83 -40 83h-11
q-33 0 -40 -54v-141h-52v5h-2l2 2v238h47v-21q25 29 64 29zM4432 1905h5q40 0 69 -40v18l-3 3l3 11h47v-208q0 -97 -85 -132l-33 -4h-7q-70 0 -104 80h59q24 -22 45 -23h13q22 0 43 22q15 13 22 52h-3q-32 -40 -73 -40q-57 0 -96 70q-10 18 -14 63q0 88 87 125zM3851 1897
h53v-136q6 -59 40 -59h7q46 0 46 93v102h51v-245h-47l-3 10h3l-3 3v5l3 2v3h-4q0 -23 -57 -31h-3q-59 0 -84 75l-2 85v93zM690 1771q10 -69 63 -69h7q59 14 59 65v15q-13 65 -59 65h-5q-58 0 -65 -76zM3630 1774q13 -72 61 -72h5q58 0 66 75q0 49 -51 70h-22q-37 0 -56 -57z
M4374 1774q8 -72 65 -72h5q59 12 59 72q0 61 -59 73h-14q-56 -16 -56 -62v-11zM3928 1620h52v-57h-52v57zM1054 1402q43 -11 43 -49v-4q0 -17 -32 -60h-28q0 25 31 57v7q0 12 -7 15h-12q-10 -4 -10 -19h-28v6q0 32 33 44zM3349 1339q92 0 138 -99h-60q-37 42 -80 42
q-55 0 -87 -68q-10 -22 -10 -47q0 -78 81 -110l18 -1q36 0 75 39h61q-44 -97 -138 -97q-93 0 -141 112q-10 31 -10 62q0 97 90 152q29 15 63 15zM3664 1339q57 0 103 -47q46 -51 46 -115v-20q0 -89 -91 -146q-33 -13 -63 -13q-89 0 -138 101q-13 33 -13 60v18q0 98 98 151
q29 11 58 11zM2261 1337h2l47 -11h3q11 0 26 11l18 -36q-18 -19 -35 -19h-3l-54 10l-20 -7l-20 36q18 16 36 16zM716 1334h19q118 0 129 -26q25 -26 25 -62q-10 -57 -30 -57v-6q47 -23 47 -66v-18q0 -63 -69 -88l-54 -5h-67v328zM2550 1334h53v-217q6 -61 45 -61q29 0 44 39
l3 30v203l4 6h45l5 -6v-171q0 -118 -40 -133q-24 -26 -64 -26q-55 0 -91 76l-4 54v206zM2805 1334h59q4 0 122 -237h4v237h50l4 -6v-322h-58q-29 48 -125 238h-3v-238h-53v328zM3101 1334h54v-328h-54v328zM3859 1334h8q155 0 174 -40q23 -11 47 -75l4 -36v-11l3 -2
q0 -94 -82 -149q-35 -15 -99 -15h-55v328zM4141 1334h153v-60h-103v-75h101v-57h-101v-74l4 -5h99v-57h-157v322zM3563 1175v-10q0 -76 79 -108l19 -1q68 0 96 86l3 20v15q0 61 -60 94q-12 8 -39 11q-66 0 -96 -83zM770 1274v-67h9q54 0 54 28l3 14q-11 25 -29 25h-37z
M3912 1274v-206l2 -3v-2q104 0 122 76l2 15v29q0 34 -32 68q-25 23 -78 23h-16zM1041 1259h5q38 0 71 -40v32h49v-245h-49v32q-36 -40 -80 -40q-75 0 -101 97l-5 36q0 89 85 125zM1314 1259h3q74 0 83 -102v-151h-51v128q0 67 -42 67h-10q-34 0 -39 -62v-133h-52v245h47v-21
q28 29 61 29zM1543 1259h5q45 0 71 -40v32h47v-219q0 -95 -104 -126h-16q-74 0 -108 82h59q26 -25 44 -25h14q52 0 64 77q-33 -42 -76 -42q-60 0 -101 81l-7 44v16q0 79 85 117zM1912 1259h2q43 0 61 -37h2q32 37 69 37h4q57 0 79 -55q8 -25 8 -45v-153h-52v138q0 44 -23 55
l-12 2h-15q-32 0 -36 -65v-130h-52v136q0 59 -43 59h-8q-32 0 -36 -57v-138h-54v245h50v-21h2q6 24 54 29zM2282 1259q47 0 75 -42v34h47v-245h-47v32q-36 -40 -78 -40q-74 0 -102 92l-6 41q0 90 85 125zM985 1117q0 -48 61 -61h4q45 0 62 46l3 15v22q-12 62 -57 62h-14
q-41 0 -59 -57v-27zM1487 1128q0 -48 43 -68l18 -4h5q47 0 63 57v23q-11 65 -58 65h-12q-50 0 -59 -73zM2225 1131v-14q15 -61 57 -61h14q58 12 58 64v11q0 45 -37 65l-18 5h-10q-64 -8 -64 -70zM770 1150v-82q0 -5 7 -5q77 0 77 45q0 34 -47 42h-37zM2966 753l24 -28
l-51 -55q-18 12 -27 26zM1524 727l85 -54q0 -15 -21 -42l-87 54q18 41 23 42zM2850 693h38l55 -60h-54l-21 26l-23 -26h-54q54 60 59 60zM3422 693h40l56 -60h-54l-24 26h-1q0 -5 -19 -26h-54zM622 685h52q8 -4 47 -137l34 -110q9 8 34 100l48 147h54v-2l-112 -326h-44z
M1159 685h51v-54h-51v54zM1354 685h46l6 -5v-323h-52v328zM2317 685h45l4 -5v-78h31v-52h-31v-193h-53v193h-26v52h26v78zM2425 685h52v-98h2q23 23 54 23h3q57 0 81 -71l3 -38v-144h-52v115q0 81 -39 81h-10q-42 0 -42 -87v-109h-52v328zM2664 685h52v-54h-52v54zM3028 685
h44l6 -5v-78h29v-52h-29v-193h-54v193h-27v52h27v78zM3234 685h52v-328h-52v328zM3957 685h52v-328h-52v328zM4316 685h51v-54h-51v54zM1555 610h5q83 0 110 -102l3 -23v-11q0 -83 -85 -120l-35 -5q-76 0 -111 97l-4 32q0 97 93 130zM1811 610h4q53 0 78 -60q7 -25 7 -81
v-112h-54v146q-7 50 -37 50h-10q-38 0 -42 -57v-139h-54v245h49v-21q26 29 59 29zM2046 610h4q45 0 63 -39h3v31h49v-206q0 -102 -89 -135l-28 -3h-5q-73 0 -106 81h52l37 -20l15 -3h14q50 0 61 72q-33 -39 -73 -39q-62 0 -98 76q-11 23 -12 60q0 85 86 123zM2866 610h2
q82 0 111 -104l2 -25l-2 -27h-172q15 -45 45 -45l14 -3q29 0 49 22h57v-3q-35 -76 -108 -76q-77 0 -111 97l-1 28v8q0 49 32 89q34 39 82 39zM3429 610h5q41 0 70 -39h2v31h47v-245h-47v31h-2q-35 -39 -77 -39q-71 0 -101 89l-5 36v14q0 86 84 120zM3711 610h7
q88 0 107 -128l-2 -1v-15q0 -65 -66 -106q-21 -11 -46 -11q-34 0 -64 32v-99l-5 -5h-49v325h49v-28q31 36 69 36zM4151 610q44 0 75 -39v31h49v-245h-49v31q-35 -39 -77 -39q-92 0 -108 132q0 84 73 121q15 8 37 8zM922 602h50v-136q3 -60 42 -60h5q44 0 44 87v109h52v-245
h-47v24h-5q0 -23 -56 -32h-3q-55 0 -82 68q-4 35 -4 99v81zM1159 602h51v-245h-51v245zM2664 602h52v-245h-52v245zM4316 602h51v-245h-51v245zM1492 488v-16q13 -66 59 -66h4q59 0 66 76q-13 71 -59 71h-11q-59 -16 -59 -65zM1987 472q15 -66 59 -66h11q48 0 59 75v1
q-13 71 -59 71h-14q-39 0 -56 -57v-24zM2805 506h122v2q-16 45 -59 45h-7q-35 0 -56 -47zM3373 474q13 -68 61 -68h5q52 0 65 63v12q-10 72 -57 72h-16q-56 -14 -56 -63zM3642 478q12 -72 61 -72h3q50 0 65 60v22q0 43 -49 65h-22q-47 0 -58 -72v-3zM4095 472q10 -66 66 -66
q43 0 61 48l2 15v16q0 54 -52 68h-18q-42 0 -59 -60v-21zM3416 321h51v-52h-51v52zM4137 321h51v-52h-51v52zM2733 133h4q35 0 43 -50v-2q0 -16 -24 -41l-10 -17h-28q0 25 28 56l3 2v2q-3 19 -9 19h-10q-8 0 -9 -19h-30q6 50 42 50zM1546 116l52 -60l-26 -19l-52 52zM352 79
h4q75 -48 85 -60l-20 -37q-88 49 -88 58zM3490 79l86 -58l-18 -39q-10 0 -91 55q15 36 23 42zM4578 76l19 -42l-91 -52l-20 39l92 58v-3zM1204 53h51v-19l5 -5h14v-36h-14l-5 -5v-279h-46v31q-34 -40 -81 -40q-72 0 -102 105l-3 26q0 102 101 131h14q33 0 66 -33v59l-6 5
h-43v36h49v24zM1480 45h40l56 -61h-53l-23 27l-23 -27h-53zM2641 45h33q12 0 63 -61h-54l-23 27q-19 -21 -19 -27h-58v4zM49 37h160v-60h-56v-268h-50l-4 5v245l2 3v2l-2 2l2 3l-2 2l2 3l-2 3h-54v54zM699 37h47v-73l2 -2l-2 -3v-3l2 -2l-2 -3v-3l2 -2v-2l-2 -3l2 -3h3
q17 24 51 24h3q53 0 77 -58q7 -17 7 -42v-153h-52v127q0 68 -40 68h-8q-43 0 -43 -86v-109h-52v322zM1297 37h47l5 -6v-49h-52v55zM1987 37h52v-198l70 115h62l-78 -118l90 -125v-2h-70q-10 22 -74 115v-115h-52v328zM2271 37v-99q24 24 53 24q57 0 80 -56q10 -19 10 -77
v-120h-54v133q0 62 -41 62h-11q-31 0 -37 -55v-140h-53v314l-1 3v3l1 2l-1 3l1 3h53zM2458 37h51v-55h-51v55zM3148 37h51v-108q27 33 68 33h3q75 0 105 -94l5 -37q0 -75 -64 -120q-30 -11 -49 -11q-41 0 -72 40v-31h-47v328zM4275 37h52v-99h2q23 24 54 24h3q60 0 82 -74
l2 -41v-138h-52v111q0 82 -32 82l-10 2h-12q-37 0 -37 -80v-115h-52v328zM329 -38h3v-58h-5q-42 0 -42 -57v-138h-53v245h47v-21q18 29 50 29zM564 -38q71 0 86 -87v-166h-51v136q-6 59 -41 59h-6q-45 0 -45 -84v-111h-52v245h50v-21q25 29 59 29zM1504 -38q72 0 105 -94
l5 -39q-2 -24 -7 -24h-169q17 -47 62 -47q24 0 48 21h57q-33 -79 -108 -79q-82 0 -113 105v37q0 81 89 117zM2657 -38h5q77 0 107 -97l3 -26v-21l-3 -13h-170q18 -47 53 -47h12q21 0 42 21h59q-34 -79 -105 -79q-84 0 -115 102l-2 29q0 93 91 128zM2915 -38h4q54 0 78 -60
q7 -25 7 -82v-111h-54v138q0 48 -35 57h-11q-38 0 -43 -57v-138h-54v245h50v-21q25 29 58 29zM3508 -38h6q40 0 70 -40h2v32h47v-245h-47v31h-2q-34 -40 -78 -40q-71 0 -101 90l-4 37v12q0 82 77 117q11 6 30 6zM3781 -38h4q62 0 82 -78l3 -84v-91h-54v138q0 48 -38 57h-9
q-38 0 -42 -52v-143h-54v245h49v-21q26 29 59 29zM4133 -38h1q74 0 104 -93l4 -40q0 -88 -84 -126l-25 -3q-41 0 -68 34v-106h-52v326h47v-29q30 37 73 37zM4714 -38h5q34 0 63 -37q27 37 69 37h6q56 0 79 -66l6 -51v-136h-52v122q0 73 -39 73h-7q-35 0 -41 -50v-140l-5 -5
h-48v140q0 42 -31 55h-17q-40 0 -40 -77v-118h-51v245h47v-21q22 29 56 29zM359 -46h49l5 -6v-234l-5 -5h-49v245zM1297 -46h52v-245h-52v245zM1649 -46h52v-136q4 -60 43 -60h4q44 0 44 81v115h52v-245h-47v24h-5q-12 -33 -59 -33q-52 0 -79 63q-5 12 -5 34v157zM2458 -46
h51v-245h-51v245zM4515 -46h51v-245h-51v245zM1077 -169q0 -53 51 -73h12q54 0 66 66v10q0 53 -54 70h-17q-38 0 -58 -57v-16zM1438 -143h122q-18 47 -53 47h-7q-43 0 -62 -44v-3zM2599 -143h122q-21 47 -54 47h-7q-46 0 -61 -47zM3196 -158v-11q10 -73 61 -73h5q64 8 64 71
v5q0 45 -38 65l-18 5h-14q-60 -14 -60 -62zM3452 -173q14 -69 62 -69h11q41 0 59 60v13q-8 73 -56 73h-17q-47 0 -59 -73v-4zM4062 -158v-22q0 -47 59 -62h9q50 0 61 76q-13 70 -58 70h-15q-56 -17 -56 -62z" />
    <glyph glyph-name=".null" horiz-adv-x="0" 
 />
    <glyph glyph-name="nonmarkingreturn" horiz-adv-x="571" 
 />
    <glyph glyph-name="space" unicode=" " horiz-adv-x="394" 
 />
    <glyph glyph-name="exclam" unicode="!" horiz-adv-x="575" 
d="M405 518h-234l-43 965h318zM456 158q0 -37 -13.5 -69t-37 -55.5t-54 -37.5t-65.5 -14t-64.5 14t-52 37.5t-36 55.5t-13.5 69t13.5 68.5t36 55t52 38t64.5 14.5t65.5 -14.5t54 -38t37 -55t13.5 -68.5z" />
    <glyph glyph-name="quotedbl" unicode="&#x22;" horiz-adv-x="925" 
d="M753 813h-154l-49 623q23 32 55.5 48.5t69.5 16.5q78 0 125 -65zM325 813h-154l-49 623q23 32 56.5 48.5t70.5 16.5t68.5 -16.5t54.5 -48.5z" />
    <glyph glyph-name="numbersign" unicode="#" horiz-adv-x="1484" 
d="M1116 911l-45 -323h217v-193h-242l-53 -395h-209l55 395h-305l-53 -395h-207l53 395h-217v193h244l45 323h-217v193h243l52 379h206l-51 -379h305l52 379h206l-51 -379h215v-193h-243zM606 911l-45 -323h303l45 323h-303z" />
    <glyph glyph-name="dollar" unicode="$" horiz-adv-x="1122" 
d="M1009 428q0 -178 -104.5 -294t-290.5 -146l14 -314h-219l31 303q-90 5 -183.5 27.5t-152.5 50.5l98 248q52 -29 130.5 -50.5t146.5 -21.5q117 0 181.5 45.5t64.5 133.5q0 41 -17.5 72.5t-46.5 56t-66.5 45t-78.5 39.5q-64 28 -133.5 65t-127 89t-95.5 124t-38 170
q0 174 100.5 284.5t274.5 139.5l-16 299h215l-33 -289q92 -4 170 -26.5t131 -51.5l-92 -229q-41 23 -108.5 43.5t-139.5 20.5q-110 0 -166.5 -44t-56.5 -126q0 -39 18.5 -71t48 -58.5t68.5 -48t80 -42.5q61 -30 131 -66t128 -87t96 -122t38 -169z" />
    <glyph glyph-name="percent" unicode="%" horiz-adv-x="1931" 
d="M1824 440q0 -100 -21.5 -185t-64.5 -147.5t-107.5 -97.5t-148.5 -35q-86 0 -149.5 35t-105.5 97.5t-63.5 147.5t-21.5 185q0 101 21.5 186t63.5 147.5t105.5 97t149.5 34.5q84 0 148.5 -34.5t107.5 -97t64.5 -147.5t21.5 -186zM786 -25l-168 54l524 1478l168 -53z
M788 1042q0 -100 -21.5 -185t-64.5 -147.5t-107.5 -97t-148.5 -34.5t-148.5 34.5t-107.5 97t-64.5 147.5t-21.5 185q0 101 21.5 186t64.5 147.5t107.5 97t148.5 34.5t148.5 -34.5t107.5 -97t64.5 -147.5t21.5 -186zM1617 442q0 138 -34.5 209.5t-100.5 71.5q-65 0 -99 -71.5
t-34 -209.5q0 -278 133 -278q135 0 135 278zM581 1044q0 138 -34.5 209.5t-100.5 71.5t-100.5 -71.5t-34.5 -209.5q0 -278 135 -278t135 278z" />
    <glyph glyph-name="ampersand" unicode="&#x26;" horiz-adv-x="1394" 
d="M1104 758v-703q-70 -32 -185.5 -56t-257.5 -24q-272 0 -422.5 106.5t-150.5 317.5q0 152 81 248t200 139v5q-117 40 -171.5 127.5t-54.5 191.5q0 80 30 152.5t88 127t145.5 86t199.5 31.5q105 0 197 -22.5t153 -57.5l-86 -215q-45 25 -106.5 40.5t-124.5 15.5
q-109 0 -168 -46t-59 -137q0 -86 57 -135t151 -49q29 0 63 2t77 10l536 97l33 -213zM840 713l-213 -37q-129 -23 -196 -85.5t-67 -170.5q0 -119 79 -172t225 -53q47 0 97 7t75 17v494z" />
    <glyph glyph-name="quotesingle" unicode="'" horiz-adv-x="499" 
d="M325 813h-154l-49 623q23 32 56.5 48.5t70.5 16.5t68.5 -16.5t54.5 -48.5z" />
    <glyph glyph-name="parenleft" unicode="(" horiz-adv-x="784" 
d="M530 -451q-195 218 -310.5 481t-115.5 578q0 316 115.5 580t310.5 481l199 -115q-74 -94 -134.5 -201.5t-105.5 -225t-69.5 -247.5t-24.5 -272q0 -141 24.5 -270t69.5 -248t105.5 -225.5t134.5 -200.5z" />
    <glyph glyph-name="parenright" unicode=")" horiz-adv-x="784" 
d="M680 608q0 -315 -116 -578t-310 -481l-199 115q74 94 134.5 200.5t105.5 225.5t69.5 248t24.5 270q0 142 -24.5 272t-69.5 247.5t-105.5 225t-134.5 201.5l199 115q194 -217 310 -481t116 -580z" />
    <glyph glyph-name="asterisk" unicode="*" horiz-adv-x="1140" 
d="M1044 1237q0 -23 -4 -40t-15 -34l-317 -76l213 -253q-2 -29 -14.5 -54.5t-33 -46t-47 -32t-53.5 -11.5q-10 0 -16 1t-16 3l-162 285l-162 -285q-8 -2 -15 -3t-18 -1q-26 0 -52 11.5t-46 32t-33.5 46t-15.5 54.5l215 253l-320 76q-16 31 -16 74q0 45 21.5 83t62.5 56
l293 -129l-27 334q41 53 113 53t115 -53l-29 -334l293 129q41 -18 63.5 -56t22.5 -83z" />
    <glyph glyph-name="plus" unicode="+" horiz-adv-x="1077" 
d="M650 557v-330h-225v330h-305v217h305v330h225v-330h308v-217h-308z" />
    <glyph glyph-name="comma" unicode="," horiz-adv-x="532" 
d="M172 -346h-186l182 582q27 40 70 69t102 29q60 0 88.5 -29t36.5 -69z" />
    <glyph glyph-name="hyphen" unicode="-" horiz-adv-x="786" 
d="M112 547v237h561v-237h-561z" />
    <glyph glyph-name="hyphen" unicode="&#x2010;" horiz-adv-x="786" 
d="M112 547v237h561v-237h-561z" />
    <glyph glyph-name="period" unicode="." horiz-adv-x="534" 
d="M436 158q0 -37 -13.5 -69t-36 -55.5t-53 -37.5t-65.5 -14t-66.5 14t-54 37.5t-36 55.5t-13.5 69t13.5 68.5t36 55t54 38t66.5 14.5t65.5 -14.5t53 -38t36 -55t13.5 -68.5z" />
    <glyph glyph-name="slash" unicode="/" horiz-adv-x="952" 
d="M238 -414l-252 76l653 1985l252 -78z" />
    <glyph glyph-name="zero" unicode="0" horiz-adv-x="1175" 
d="M1079 741q0 -163 -27.5 -302.5t-88 -243t-153.5 -162t-222 -58.5q-130 0 -223 58.5t-153.5 162t-88 243t-27.5 302.5q0 162 27.5 302.5t88 244t153.5 161.5t223 58q129 0 222 -58t153.5 -161.5t88 -244t27.5 -302.5zM809 743q0 121 -12.5 220.5t-39 171t-68.5 111.5
t-101 40q-60 0 -102 -40t-68.5 -111.5t-38 -171t-11.5 -220.5q0 -120 11.5 -219.5t38 -171t68.5 -111.5t102 -40q59 0 101 40t68.5 111.5t39 171t12.5 219.5z" />
    <glyph glyph-name="one" unicode="1" horiz-adv-x="882" 
d="M448 0v1169q-35 -20 -80 -39.5t-97 -35t-105.5 -27.5t-102.5 -20l-39 213q70 12 140.5 32.5t135 49t117.5 64.5t90 77h213v-1483h-272z" />
    <glyph glyph-name="two" unicode="2" horiz-adv-x="1144" 
d="M20 0l608 791q45 59 79 121.5t34 134.5q0 102 -70.5 164.5t-201.5 62.5q-74 0 -154 -17.5t-145 -46.5l-80 217q88 39 193.5 59.5t209.5 20.5q260 0 395.5 -119.5t135.5 -326.5q0 -60 -16.5 -115t-42 -105t-57.5 -94.5t-63 -80.5l-372 -435h581v-231h-1034z" />
    <glyph glyph-name="three" unicode="3" horiz-adv-x="1079" 
d="M997 426q0 -102 -37 -185t-107.5 -141.5t-172 -91.5t-230.5 -33q-113 0 -225.5 21.5t-200.5 58.5l86 217q66 -28 154 -44.5t182 -16.5q129 0 200.5 59.5t71.5 157.5q0 57 -30.5 101t-85 73t-127 44.5t-156.5 15.5h-23v204q174 11 276.5 76.5t102.5 163.5q0 80 -58 125
t-169 45q-74 0 -158 -18.5t-151 -47.5l-78 217q90 39 199.5 59.5t224.5 20.5q231 0 347 -104.5t116 -276.5q0 -55 -20.5 -106t-54.5 -93t-77 -75t-90 -53v-4q55 -19 107.5 -49.5t93.5 -75.5t65.5 -105.5t24.5 -138.5z" />
    <glyph glyph-name="four" unicode="4" horiz-adv-x="1155" 
d="M948 367v-367h-250v367h-637v198l592 918h295v-918h141v-198h-141zM708 1237q-14 -27 -29 -55q-26 -54 -65 -115l-320 -502h412v477v70t2 64q2 32 4 61h-4z" />
    <glyph glyph-name="five" unicode="5" horiz-adv-x="1083" 
d="M1001 446q0 -116 -42 -204t-118 -147.5t-178.5 -89.5t-222.5 -30q-111 0 -218.5 22.5t-193.5 57.5l86 217q59 -28 148.5 -44.5t168.5 -16.5q138 0 214.5 60.5t76.5 168.5q0 58 -21.5 105t-68.5 80.5t-121.5 53t-179.5 19.5q-47 0 -100 -3t-113 -13l88 801h764v-232h-530
l-41 -348h41q280 0 420.5 -120.5t140.5 -336.5z" />
    <glyph glyph-name="six" unicode="6" horiz-adv-x="1177" 
d="M1093 461q0 -103 -35.5 -191t-101 -153.5t-157 -103.5t-201.5 -38q-131 0 -226.5 46.5t-158 126t-92 184t-29.5 221.5q0 186 62.5 344t172 279.5t258 205.5t320.5 125l66 -233q-211 -51 -348.5 -156.5t-204.5 -253.5q41 17 95 28t101 11q111 0 200 -30.5t150.5 -88
t95 -139.5t33.5 -184zM827 457q0 123 -72.5 188.5t-187.5 65.5q-49 0 -105.5 -12.5t-97.5 -28.5q-4 -29 -7 -59.5t-3 -59.5q0 -154 61.5 -252t182.5 -98q53 0 95 20.5t71.5 56t46 82t16.5 97.5z" />
    <glyph glyph-name="seven" unicode="7" horiz-adv-x="1105" 
d="M457 0h-306l555 1251h-659v232h1032z" />
    <glyph glyph-name="eight" unicode="8" horiz-adv-x="1171" 
d="M1089 373q0 -90 -38 -164t-104.5 -126t-159 -80t-202.5 -28q-111 0 -203 27t-158.5 77t-103.5 123.5t-37 170.5q0 80 23.5 140t63.5 107.5t92 82t108 63.5q-51 27 -96.5 60.5t-79 75.5t-54 95.5t-20.5 120.5q0 90 34.5 163t96 123t146.5 76.5t188 26.5q98 0 184 -28.5
t148.5 -79.5t98.5 -123t36 -158q0 -67 -20.5 -120.5t-55.5 -95.5t-80 -75.5t-96 -60.5q57 -29 109.5 -63.5t92 -82t63.5 -107.5t24 -140zM796 1118q0 78 -53.5 135.5t-157.5 57.5q-105 0 -158 -57.5t-53 -135.5q0 -47 16.5 -84t45 -67.5t67.5 -55t82 -45.5q43 21 82 45.5
t67.5 55t45 67.5t16.5 84zM820 383q0 51 -19.5 92t-51 74t-74.5 59.5t-90 50.5q-47 -24 -90 -50.5t-76 -59.5t-51.5 -74t-18.5 -92q0 -92 65.5 -147.5t170.5 -55.5q104 0 169.5 55.5t65.5 147.5z" />
    <glyph glyph-name="nine" unicode="9" horiz-adv-x="1177" 
d="M1084 930q0 -187 -62 -344.5t-172 -279.5t-258.5 -207t-320.5 -124l-65 234q211 51 348 156.5t205 252.5q-41 -16 -94.5 -27t-100.5 -11q-223 0 -352 117.5t-129 324.5q0 100 36 189t100.5 155t155.5 103.5t202 37.5q131 0 226 -46t157.5 -126t93 -184t30.5 -221z
M822 934q0 153 -62.5 252.5t-182.5 99.5q-54 0 -96 -21.5t-71.5 -57.5t-45 -82t-15.5 -97q0 -123 73 -188.5t187 -65.5q49 0 106.5 13.5t96.5 29.5q4 29 7 58.5t3 58.5z" />
    <glyph glyph-name="colon" unicode=":" horiz-adv-x="587" 
d="M464 825q0 -37 -13.5 -68.5t-37 -55t-54 -37t-65.5 -13.5t-65.5 13.5t-54 37t-37 55t-13.5 68.5t13.5 69t37 55.5t54 37.5t65.5 14t65.5 -14t54 -37.5t37 -55.5t13.5 -69zM464 158q0 -37 -13.5 -69t-37 -55.5t-54 -37.5t-65.5 -14t-65.5 14t-54 37.5t-37 55.5t-13.5 69
t13.5 68.5t37 55t54 38t65.5 14.5t65.5 -14.5t54 -38t37 -55t13.5 -68.5z" />
    <glyph glyph-name="semicolon" unicode=";" horiz-adv-x="587" 
d="M469 825q0 -37 -13.5 -68.5t-36 -55t-53 -37t-65.5 -13.5t-65.5 13.5t-53 37t-36 55t-13.5 68.5t13.5 69t36 55.5t53 37.5t65.5 14t65.5 -14t53 -37.5t36 -55.5t13.5 -69zM182 -346h-186l180 582q29 40 72 69t102 29q60 0 88.5 -29t34.5 -69z" />
    <glyph glyph-name="less" unicode="&#x3c;" horiz-adv-x="1077" 
d="M120 573v185l838 420v-254l-592 -258l592 -258v-254z" />
    <glyph glyph-name="equal" unicode="=" horiz-adv-x="1077" 
d="M120 784v215h838v-215h-838zM120 332v215h838v-215h-838z" />
    <glyph glyph-name="greater" unicode="&#x3e;" horiz-adv-x="1077" 
d="M120 154v254l592 258l-592 258v254l838 -420v-185z" />
    <glyph glyph-name="question" unicode="?" horiz-adv-x="985" 
d="M907 1120q0 -78 -29.5 -139t-77 -108.5t-105.5 -81t-114 -54.5l-16 -219h-221l-23 356q60 15 114 35.5t96 50t66.5 65.5t24.5 81q0 82 -53 127t-172 45q-65 0 -139 -18.5t-123 -42.5l-84 210q74 35 176.5 57.5t206.5 22.5q229 0 351 -97t122 -290zM624 158q0 -37 -13 -69
t-35.5 -55.5t-53.5 -37.5t-65 -14q-35 0 -66 14t-54.5 37.5t-36.5 55.5t-13 69t13 68.5t36.5 55t54.5 38t66 14.5q34 0 65 -14.5t53.5 -38t35.5 -55t13 -68.5z" />
    <glyph glyph-name="at" unicode="@" horiz-adv-x="2023" 
d="M1925 684q0 -186 -58.5 -319.5t-159 -219.5t-234.5 -127t-288 -41q-286 0 -444 145.5t-158 416.5q0 125 34 225t96.5 168.5t151.5 105.5t200 37q123 0 205.5 -35.5t130.5 -78.5v-752q63 22 117.5 60t92 95.5t59 136.5t21.5 183q0 131 -37.5 243.5t-115.5 195.5
t-196 131.5t-277 48.5q-172 0 -308.5 -58.5t-230.5 -162t-144.5 -248t-50.5 -316.5q0 -170 54.5 -311t161 -243.5t262 -160t358.5 -57.5q178 0 331.5 48t254.5 120l114 -178q-120 -86 -294.5 -143.5t-405.5 -57.5q-248 0 -446.5 71.5t-337 202t-212 311.5t-73.5 398
q0 211 66.5 392.5t192.5 313.5t304 207.5t404 75.5q209 0 369.5 -64.5t269 -177t165 -262t56.5 -319.5zM1173 852q-16 10 -48 19.5t-69 9.5q-116 0 -177.5 -86t-61.5 -256q0 -185 92 -271t248 -86h16v670z" />
    <glyph glyph-name="A" unicode="A" horiz-adv-x="1304" 
d="M1003 0l-104 346h-492l-104 -346h-289l475 1483h326l477 -1483h-289zM694 1065q-10 31 -17.5 62.5t-11.5 58.5q-6 31 -10 59h-4q-4 -28 -10 -59q-4 -27 -11.5 -58.5t-17.5 -62.5l-149 -506h380z" />
    <glyph glyph-name="B" unicode="B" horiz-adv-x="1210" 
d="M1128 403q0 -200 -141 -314t-422 -114q-61 0 -122.5 6.5t-118 16.5t-106.5 25.5t-87 31.5v1372q80 35 193.5 57.5t236.5 22.5q135 0 234.5 -30.5t166 -84t98.5 -128t32 -162.5q0 -64 -18.5 -118t-50.5 -97t-72 -72t-83 -41v-4q43 -14 89 -44t84 -75t62.5 -106.5
t24.5 -141.5zM827 1075q0 101 -64.5 157t-201.5 56q-47 0 -92 -7t-74 -17v-408h174q72 0 115 11.5t76 37.5q30 27 48.5 71t18.5 99zM856 422q0 125 -90 182q-35 23 -78 35t-115 12h-178v-432q29 -10 76 -17t92 -7q293 0 293 227z" />
    <glyph glyph-name="C" unicode="C" horiz-adv-x="1030" 
d="M962 55q-49 -35 -128.5 -57.5t-178.5 -22.5q-116 0 -219.5 47.5t-180.5 142.5t-121 238.5t-44 337.5q0 193 44 337.5t121 239.5t180.5 142t219.5 47q94 0 176 -22.5t131 -57.5l-86 -231q-28 23 -78.5 41t-109.5 18q-137 0 -225 -129t-88 -383t88 -382t225 -128
q59 0 109.5 17.5t78.5 40.5l86 -236v0z" />
    <glyph glyph-name="D" unicode="D" horiz-adv-x="1243" 
d="M1153 741q0 -374 -166 -570t-465 -196q-119 0 -222 22.5t-169 57.5v1372q68 35 171 57.5t220 22.5q299 0 465 -195.5t166 -570.5zM874 741q0 138 -24.5 237t-69.5 162.5t-106.5 93.5t-134.5 30q-82 0 -129 -21v-1003q40 -21 129 -21q73 0 134.5 30t106.5 93.5t69.5 161.5
t24.5 237z" />
    <glyph glyph-name="E" unicode="E" horiz-adv-x="976" 
d="M131 0v1483h758v-242h-486v-371h439v-237h-439v-391h486v-242h-758z" />
    <glyph glyph-name="F" unicode="F" horiz-adv-x="956" 
d="M403 1241v-371h433v-237h-433v-633h-272v1483h750v-242h-478z" />
    <glyph glyph-name="G" unicode="G" horiz-adv-x="1253" 
d="M1128 55q-57 -32 -159.5 -56t-231.5 -24q-149 0 -269 53.5t-204 154t-129 241.5t-45 317q0 177 48 318t136 241.5t212 153.5t276 53q110 0 205.5 -22.5t148.5 -57.5l-86 -225q-41 25 -107.5 42.5t-152.5 17.5q-84 0 -156.5 -31t-127 -95.5t-86 -161.5t-31.5 -231
q0 -133 28.5 -231t76.5 -163.5t111.5 -97.5t131.5 -32q53 0 93 6t58 17v413h-217v219h477v-819v0z" />
    <glyph glyph-name="H" unicode="H" horiz-adv-x="1253" 
d="M846 0v633h-436v-633h-279v1483h279v-613h436v613h276v-1483h-276z" />
    <glyph glyph-name="I" unicode="I" horiz-adv-x="540" 
d="M131 0v1483h279v-1483h-279z" />
    <glyph glyph-name="J" unicode="J" horiz-adv-x="540" 
d="M410 164q0 -283 -140 -431.5t-386 -181.5v248q113 29 180.5 115t67.5 250v1319h278v-1319v0z" />
    <glyph glyph-name="K" unicode="K" horiz-adv-x="1200" 
d="M866 0l-452 737h-4v-737h-279v1483h279v-672h4l446 672h311l-477 -709l488 -774h-316z" />
    <glyph glyph-name="L" unicode="L" horiz-adv-x="911" 
d="M131 0v1483h279v-1241h442v-242h-721z" />
    <glyph glyph-name="M" unicode="M" horiz-adv-x="1712" 
d="M1380 0l-101 944q-4 35 -6 71t-4 64q-2 35 -4 66h-4q-4 -31 -12 -66l-16 -64t-19 -71l-269 -944h-178l-270 944q-10 35 -19.5 71t-15.5 64q-8 35 -12 66h-4q-2 -31 -4 -66q-2 -28 -4.5 -64t-6.5 -71l-100 -944h-258l178 1483h314l247 -867q11 -32 18 -65t13 -62
q8 -32 12 -63h4q2 31 11 63q4 29 12 62t18 65l246 867h313l179 -1483h-258z" />
    <glyph glyph-name="N" unicode="N" horiz-adv-x="1320" 
d="M960 0l-507 879q-19 30 -34.5 61t-25.5 55l-24 58h-5q0 -29 3 -62q0 -28 1 -62t1 -69v-860h-238v1483h238l497 -856q17 -31 32 -61.5t28 -55.5q14 -29 26 -57h4q-2 28 -2 63q-2 29 -2 64.5v70.5v832h238v-1483h-230z" />
    <glyph glyph-name="O" unicode="O" 
d="M1192 741q0 -161 -34 -301.5t-102.5 -243t-172 -162t-242.5 -59.5t-242.5 59.5t-172 162t-102.5 243t-34 301.5q0 162 34 302.5t102.5 243t172 161.5t242.5 59t242.5 -59t172 -161.5t102.5 -243t34 -302.5zM913 741q0 115 -17.5 209t-51 161t-85 103.5t-118.5 36.5
q-68 0 -119 -36.5t-85 -103.5t-51 -161t-17 -209q0 -114 17 -208.5t51 -161t85 -103.5t119 -37q67 0 118.5 37t85 103.5t51 161t17.5 208.5z" />
    <glyph glyph-name="P" unicode="P" horiz-adv-x="1157" 
d="M1092 1032q0 -100 -35 -186t-105.5 -148.5t-175 -97.5t-242.5 -35q-34 0 -71 3t-60 7v-575h-272v1427q82 37 185.5 58.5t226.5 21.5q268 0 408.5 -129t140.5 -346zM819 1034q0 252 -272 252q-41 0 -80 -6t-64 -16v-469q45 -11 117 -11q148 0 223.5 67t75.5 183z" />
    <glyph glyph-name="Q" unicode="Q" 
d="M983 -401l-227 389q-56 -13 -115 -13q-139 0 -242.5 59.5t-172 162t-102.5 243t-34 301.5q0 162 34 302.5t102.5 243t172 161.5t242.5 59t242.5 -59t172 -161.5t102.5 -243t34 -302.5q0 -206 -55.5 -374t-165.5 -271l223 -321zM913 741q0 115 -17.5 209t-51 161
t-85 103.5t-118.5 36.5q-68 0 -119 -36.5t-85 -103.5t-51 -161t-17 -209q0 -114 17 -208.5t51 -161t85 -103.5t119 -37q67 0 118.5 37t85 103.5t51 161t17.5 208.5z" />
    <glyph glyph-name="R" unicode="R" horiz-adv-x="1218" 
d="M881 0l-179 455q-28 67 -73 107t-119 40h-105v-602h-274v1427q86 39 197.5 59.5t230.5 20.5q268 0 402.5 -118.5t134.5 -327.5q0 -80 -22.5 -141.5t-61.5 -106.5t-89.5 -74.5t-105.5 -46.5v-4q57 -33 97 -89t69 -128l190 -471h-292zM823 1044q0 117 -61.5 180.5
t-196.5 63.5q-45 0 -88 -7t-72 -17v-457h148q131 0 200.5 57.5t69.5 179.5z" />
    <glyph glyph-name="S" unicode="S" horiz-adv-x="1007" 
d="M923 430q0 -102 -33 -185t-95.5 -143.5t-152.5 -93.5t-204 -33q-105 0 -205.5 22.5t-159.5 57.5l90 250q47 -29 118 -49t142 -20q101 0 159 49t58 131q0 39 -15 69.5t-42 55t-62.5 44t-74.5 38.5q-60 28 -123.5 65t-115.5 89t-86 123t-34 169t33 179t92.5 138.5t145.5 89
t192 31.5q105 0 192 -22.5t140 -57.5l-86 -233q-39 23 -102.5 44.5t-131.5 21.5q-92 0 -144 -48.5t-52 -126.5q0 -38 16.5 -68t44 -55.5t63.5 -46t75 -41.5q57 -30 120.5 -66t116.5 -87t87 -122t34 -169z" />
    <glyph glyph-name="T" unicode="T" horiz-adv-x="999" 
d="M639 1241v-1241h-277v1241h-301v242h877v-242h-299z" />
    <glyph glyph-name="U" unicode="U" horiz-adv-x="1234" 
d="M1104 438q0 -110 -37 -195t-102.5 -143.5t-154.5 -89t-194 -30.5q-104 0 -192 30.5t-153.5 89t-102.5 143.5t-37 195v1045h279v-1047q0 -98 60 -153.5t146 -55.5q88 0 148.5 55.5t60.5 153.5v1047h279v-1045v0z" />
    <glyph glyph-name="V" unicode="V" horiz-adv-x="1214" 
d="M755 0h-293l-438 1483h299l242 -965q8 -35 15 -72.5t13 -68.5q9 -37 13 -72h4q2 35 10 72q4 31 12 68.5t19 72.5l239 965h301z" />
    <glyph glyph-name="W" unicode="W" horiz-adv-x="1794" 
d="M1399 0h-271l-194 860q-10 37 -16.5 74t-10.5 67q-6 37 -8 70h-4q-4 -33 -10 -70q-4 -30 -10.5 -67t-14.5 -74l-194 -860h-269l-352 1483h279l186 -932q6 -35 11 -68.5t9 -62.5q7 -35 11 -66h4q2 31 8 66q4 29 9 62.5t13 68.5l207 932h230l207 -932q8 -35 14 -68.5
t10 -62.5q6 -35 8 -66h2q4 31 11 66q4 29 9 62.5t13 68.5l184 932h279z" />
    <glyph glyph-name="X" unicode="X" horiz-adv-x="1181" 
d="M860 0l-266 539h-5l-270 -539h-303l410 768l-381 715h303l241 -486h5l239 486h303l-381 -715l410 -768h-305z" />
    <glyph glyph-name="Y" unicode="Y" horiz-adv-x="1150" 
d="M712 582v-582h-276v582l-422 901h299l258 -611h4l262 611h299z" />
    <glyph glyph-name="Z" unicode="Z" horiz-adv-x="1019" 
d="M40 0l516 1241h-469v242h848l-514 -1241h518v-242h-899z" />
    <glyph glyph-name="bracketleft" unicode="[" horiz-adv-x="751" 
d="M147 -399v2007h516v-217h-254v-1573h254v-217h-516z" />
    <glyph glyph-name="backslash" unicode="\" horiz-adv-x="952" 
d="M712 -414l-651 1983l252 78l653 -1985z" />
    <glyph glyph-name="bracketright" unicode="]" horiz-adv-x="751" 
d="M88 -399v217h254v1573h-254v217h516v-2007h-516z" />
    <glyph glyph-name="asciicircum" unicode="^" horiz-adv-x="1191" 
d="M889 786l-293 377l-293 -377l-166 140l338 430q49 59 121 59q71 0 119 -59l340 -430z" />
    <glyph glyph-name="underscore" unicode="_" horiz-adv-x="1163" 
d="M-8 -444v190h1180v-190h-1180z" />
    <glyph glyph-name="grave" unicode="`" horiz-adv-x="673" 
d="M292 1231l-213 270q10 29 41 45.5t70 16.5t78.5 -14.5t68.5 -47.5l137 -270h-182z" />
    <glyph glyph-name="a" unicode="a" horiz-adv-x="1062" 
d="M945 55q-30 -16 -73 -30.5t-95.5 -25.5t-110.5 -17.5t-118 -6.5q-241 0 -359 93.5t-118 263.5q0 112 52 183t138 112t198 59.5t233 24.5v57q0 86 -53.5 122t-145.5 36q-76 0 -159 -20.5t-138 -45.5l-68 189q68 28 172.5 53.5t221.5 25.5q204 0 313.5 -91t109.5 -302v-680
zM692 532q-74 -4 -141.5 -11t-118 -27.5t-81 -57.5t-30.5 -98q0 -78 57.5 -121t161.5 -43q43 0 86 6t66 17v335z" />
    <glyph glyph-name="b" unicode="b" horiz-adv-x="1118" 
d="M1035 582q0 -312 -143 -459.5t-397 -147.5q-111 0 -210 24t-165 56v1553h266v-527q35 17 87.5 27t99.5 10q104 0 189 -35.5t145.5 -105.5t94 -169t33.5 -226zM765 559q0 164 -64.5 255t-179.5 91q-36 0 -73 -8t-62 -20v-660q21 -10 54.5 -16t70.5 -6q115 0 184.5 90
t69.5 274z" />
    <glyph glyph-name="c" unicode="c" horiz-adv-x="899" 
d="M837 51q-54 -35 -120.5 -55.5t-160.5 -20.5q-92 0 -178 35t-152.5 106.5t-105.5 180.5t-39 256t39 256t105.5 179.5t152.5 105t178 34.5q94 0 162 -20.5t119 -54.5l-84 -201q-64 47 -158 47q-98 0 -166.5 -85t-68.5 -259q0 -86 18 -150.5t51 -107.5t75 -64.5t91 -21.5
q92 0 158 49l84 -209v0z" />
    <glyph glyph-name="d" unicode="d" horiz-adv-x="1118" 
d="M999 55q-60 -32 -163.5 -56t-224.5 -24q-258 0 -394 149.5t-136 420.5q0 127 31.5 232.5t94 180t156 115.5t214.5 41q43 0 85 -6t66 -16v516h271v-1553zM728 883q-16 8 -52 14t-71 6q-127 0 -191.5 -98t-64.5 -256q0 -168 65.5 -261t190.5 -93q35 0 71 6t52 16v666z" />
    <glyph glyph-name="e" unicode="e" horiz-adv-x="1112" 
d="M1029 627v-46.5t-4 -48.5l-682 -96q19 -123 97.5 -182t195.5 -59q80 0 160 19t135 50l76 -209q-66 -35 -170.5 -57.5t-220.5 -22.5q-132 0 -231 42t-166.5 119t-102.5 183.5t-35 233.5t34 232.5t97.5 182t154.5 118.5t206 42q110 0 195 -35.5t143.5 -102t88 -159
t29.5 -204.5zM769 676q0 125 -54 187.5t-149 62.5q-104 0 -170.5 -79t-70.5 -235z" />
    <glyph glyph-name="f" unicode="f" horiz-adv-x="727" 
d="M679 1391q-4 0 -12 1t-22 1q-80 0 -134.5 -38t-54.5 -128v-123h205v-209h-205v-895h-264v895h-131v209h131v123q0 100 29.5 173t84 120t128 70.5t159.5 23.5q21 0 45.5 -1t40.5 -5v-217v0z" />
    <glyph glyph-name="g" unicode="g" horiz-adv-x="1118" 
d="M999 14q0 -116 -33 -205.5t-94.5 -148.5t-148.5 -90t-193 -31q-127 0 -229.5 24.5t-174.5 61.5l78 219q53 -28 131 -47.5t168 -19.5q119 0 174 60.5t55 176.5v68q-39 -19 -91 -29t-105 -10q-101 0 -185 36t-143 103.5t-93 164.5t-34 222q0 140 38 245.5t108.5 175
t171 104t225.5 34.5q112 0 210.5 -22.5t164.5 -56.5v-1035zM732 891q-20 10 -55 16t-76 6q-110 0 -181 -79.5t-71 -253.5q0 -164 66.5 -245t177.5 -81q37 0 77 9t62 22v606z" />
    <glyph glyph-name="h" unicode="h" horiz-adv-x="1122" 
d="M732 0v721q0 92 -50 137t-142 45q-41 0 -82 -11t-72 -30v-862h-266v1608h266v-537q47 23 105.5 37t117.5 14q189 0 291.5 -95t102.5 -277v-750h-271z" />
    <glyph glyph-name="i" unicode="i" horiz-adv-x="516" 
d="M411 1432q0 -64 -45 -108t-108 -44q-66 0 -110 44t-44 108q0 63 44 106t110 43q63 0 108 -43t45 -106zM122 0v1104h269v-1104h-269z" />
    <glyph glyph-name="j" unicode="j" horiz-adv-x="516" 
d="M412 1432q0 -64 -45 -108t-109 -44q-65 0 -109 44t-44 108q0 63 44 106t109 43q64 0 109 -43t45 -106zM391 139q0 -153 -38.5 -260.5t-105.5 -177.5t-154 -106.5t-185 -51.5v232q43 14 82 40.5t68.5 69.5t47 105.5t17.5 148.5v965h268v-965z" />
    <glyph glyph-name="k" unicode="k" horiz-adv-x="1089" 
d="M771 0l-381 557h-4v-557h-264v1608h264v-987h4l350 483h310l-383 -516l407 -588h-303z" />
    <glyph glyph-name="l" unicode="l" horiz-adv-x="516" 
d="M122 0v1608h268v-1608h-268z" />
    <glyph glyph-name="m" unicode="m" horiz-adv-x="1708" 
d="M1320 0v735q0 82 -47 126t-127 44q-98 0 -158 -55v-850h-270v748q0 73 -49 115t-135 42q-88 0 -148 -26v-879h-266v1049q80 34 182.5 56.5t214.5 22.5q129 0 212 -34.5t130 -77.5q49 41 142.5 76.5t212.5 35.5q178 0 277 -98t99 -266v-764h-270z" />
    <glyph glyph-name="n" unicode="n" horiz-adv-x="1122" 
d="M732 0v727q0 84 -47 131t-139 47q-47 0 -90 -8t-70 -18v-879h-266v1049q84 34 187.5 56.5t234.5 22.5q237 0 349 -96t112 -276v-756h-271z" />
    <glyph glyph-name="o" unicode="o" horiz-adv-x="1124" 
d="M1042 553q0 -123 -32 -229.5t-93.5 -183.5t-150.5 -121t-204 -44q-116 0 -205.5 44t-151 121t-93 183.5t-31.5 229.5t31.5 228.5t93 182t151 120.5t205.5 44q115 0 204 -44t150.5 -120.5t93.5 -182t32 -228.5zM773 555q0 166 -52 260t-159 94q-108 0 -160.5 -94
t-52.5 -260t52.5 -259t160.5 -93q107 0 159 93t52 259z" />
    <glyph glyph-name="p" unicode="p" horiz-adv-x="1118" 
d="M1035 557q0 -127 -31.5 -232.5t-94 -180t-155.5 -115.5t-214 -41q-43 0 -86 7t-68 17v-452h-266v1489q59 32 162.5 55.5t224.5 23.5q258 0 393 -150.5t135 -420.5zM765 557q0 168 -65.5 261t-188.5 93q-37 0 -71.5 -6t-53.5 -16v-668q17 -8 54.5 -14t72.5 -6
q62 0 109 26.5t78.5 73.5t48 112.5t16.5 143.5z" />
    <glyph glyph-name="q" unicode="q" horiz-adv-x="1118" 
d="M728 -440v463q-35 -17 -87 -27t-99 -10q-103 0 -188 35.5t-145 105.5t-94 169t-34 226q0 309 144.5 457.5t398.5 148.5q110 0 209.5 -23.5t165.5 -55.5v-1489h-271zM728 889q-18 10 -52 16t-71 6q-116 0 -186 -90t-70 -274q0 -164 64.5 -255t179.5 -91q37 0 74 8t61 20
v660z" />
    <glyph glyph-name="r" unicode="r" horiz-adv-x="735" 
d="M640 887q-53 16 -121 16q-37 0 -72.5 -6t-60.5 -16v-881h-266v1049q82 34 192.5 56.5t239.5 22.5q80 0 137 -10z" />
    <glyph glyph-name="s" unicode="s" horiz-adv-x="909" 
d="M833 317q0 -155 -108.5 -248.5t-321.5 -93.5q-100 0 -191.5 24t-150.5 56l86 213q20 -12 51 -25.5t65 -23.5t68.5 -16t63.5 -6q72 0 116 32.5t44 87.5q0 62 -46.5 93.5t-117.5 58.5q-49 18 -103.5 43t-98.5 61.5t-72.5 92t-28.5 137.5q0 147 101 236t288 89
q104 0 185 -22.5t142 -56.5l-84 -191q-34 23 -94.5 43.5t-113.5 20.5q-72 0 -111 -33t-39 -82q0 -64 45 -94.5t115 -57.5q53 -20 108.5 -43.5t100.5 -61.5t73.5 -93.5t28.5 -139.5z" />
    <glyph glyph-name="t" unicode="t" horiz-adv-x="722" 
d="M653 14q-25 -12 -69 -21t-93 -9q-153 0 -227 87t-74 261v563h-135v209h135v246l264 80v-326h199v-209h-199v-545q0 -67 35 -94t86 -27q23 0 43.5 5.5t34.5 11.5v-232v0z" />
    <glyph glyph-name="u" unicode="u" horiz-adv-x="1107" 
d="M988 55q-69 -35 -184 -57.5t-240 -22.5q-219 0 -331.5 97.5t-112.5 312.5v719h266v-725q0 -174 178 -174q54 0 94 7t62 17v875h268v-1049v0z" />
    <glyph glyph-name="v" unicode="v" horiz-adv-x="1136" 
d="M722 0h-309l-385 1104h303l195 -688q18 -68 28 -121q6 -31 11 -57h4q2 26 10 57q4 27 12 57.5t19 63.5l194 688h301z" />
    <glyph glyph-name="w" unicode="w" horiz-adv-x="1656" 
d="M1302 0h-278l-164 629q-8 28 -12 57t-8 53q-5 29 -9 56h-4q-2 -27 -8 -56q-4 -24 -10 -53t-12 -57l-164 -629h-277l-309 1104h270l150 -676q6 -31 11 -62.5t9 -58.5q4 -31 9 -59h4q4 28 10 59q4 27 10 58.5t14 62.5l172 676h246l170 -676q8 -31 14.5 -62.5t10.5 -58.5
q6 -31 10 -59h4q4 28 8 59q4 27 8.5 58.5t12.5 62.5l151 676h269z" />
    <glyph glyph-name="x" unicode="x" horiz-adv-x="1083" 
d="M762 0l-220 383h-4l-217 -383h-307l360 571l-331 533h303l192 -352h4l195 352h301l-330 -533l361 -571h-307z" />
    <glyph glyph-name="y" unicode="y" horiz-adv-x="1134" 
d="M550 -440h-280l157 440l-399 1104h303l199 -694q10 -31 16 -63t10 -56q7 -29 9 -55h4q2 26 8 55q4 24 11 56t18 63l198 694h301z" />
    <glyph glyph-name="z" unicode="z" horiz-adv-x="931" 
d="M49 0l426 885h-391v219h766l-426 -885h434v-219h-809z" />
    <glyph glyph-name="braceleft" unicode="{" horiz-adv-x="759" 
d="M571 -399q-193 0 -285 100t-92 279q0 51 5 91t10 75.5t10.5 73.5t5.5 87q0 84 -43 132t-115 53v225q72 4 115 52t43 132q0 49 -5.5 87t-10.5 74t-10 75t-5 92q0 178 92 278.5t285 100.5h86v-217h-43q-74 0 -116 -40t-42 -122q0 -53 5 -92t10.5 -75t10.5 -74t5 -87
q0 -117 -51.5 -191.5t-143.5 -103.5v-4q92 -29 143.5 -103.5t51.5 -191.5q0 -49 -5 -87t-10.5 -73.5t-10.5 -75.5t-5 -91q0 -82 42 -122t116 -40h43v-217h-86z" />
    <glyph glyph-name="bar" unicode="|" horiz-adv-x="522" 
d="M126 -440v2048h268v-2048h-268z" />
    <glyph glyph-name="braceright" unicode="}" horiz-adv-x="759" 
d="M692 492q-72 -5 -116 -53t-44 -132q0 -49 5 -87t11.5 -73.5t11.5 -75.5t5 -91q0 -179 -93.5 -279t-285.5 -100h-84v217h43q74 0 116 40t42 122q0 51 -5.5 91t-11.5 75.5t-11 73.5t-5 87q0 117 52 191.5t145 103.5v4q-93 29 -145 103.5t-52 191.5q0 49 5 87t11 74t11.5 75
t5.5 92q0 82 -42 122t-116 40h-43v217h84q192 0 285.5 -100.5t93.5 -278.5q0 -53 -5 -92t-11.5 -75t-11.5 -74t-5 -87q0 -84 44 -132t116 -52v-225v0z" />
    <glyph glyph-name="asciitilde" unicode="~" horiz-adv-x="1191" 
d="M1057 819q-19 -108 -89.5 -179t-181.5 -71q-55 0 -99 18.5t-84 41t-80 41t-85 18.5q-59 0 -104 -36t-66 -93l-137 105q20 108 92 178.5t182 70.5q56 0 100 -18t84 -41t77.5 -41t85.5 -18q59 0 105 35.5t67 93.5l133 -105v0z" />
    <glyph glyph-name="dieresis" unicode="&#xa8;" horiz-adv-x="673" 
d="M668 1374q0 -53 -38 -91t-94 -38q-53 0 -91 38t-38 91t38 90t91 37q56 0 94 -37t38 -90zM270 1374q0 -53 -39 -91t-94 -38q-53 0 -92 38t-39 91t39 90t92 37q55 0 94 -37t39 -90z" />
    <glyph glyph-name="copyright" unicode="&#xa9;" horiz-adv-x="1691" 
d="M1593 741q0 -161 -56.5 -300.5t-156.5 -243t-236.5 -163t-297.5 -59.5q-162 0 -299.5 59.5t-236.5 163t-155.5 243t-56.5 300.5q0 162 56.5 301.5t155.5 243t236.5 162.5t299.5 59q161 0 297.5 -59t236.5 -162.5t156.5 -243t56.5 -301.5zM1423 741q0 129 -43 240
t-120 192.5t-183.5 129t-230.5 47.5q-127 0 -232.5 -47.5t-182.5 -129t-120 -192.5t-43 -240t43 -239.5t120 -192.5t182.5 -129t232.5 -47q124 0 230.5 47t183.5 129t120 192.5t43 239.5zM1077 377q-35 -23 -89 -39t-118 -16q-78 0 -144.5 26.5t-115.5 78.5t-77.5 132
t-28.5 189q0 106 28.5 186t77.5 133t115.5 78.5t144.5 25.5q64 0 118 -16t89 -39l-64 -127q-22 17 -56 27t-73 10q-41 0 -76.5 -15.5t-64.5 -49t-45 -86t-16 -125.5q0 -74 16 -126.5t45 -86t64.5 -49t76.5 -15.5q39 0 73 10.5t56 26.5z" />
    <glyph glyph-name="registered" unicode="&#xae;" horiz-adv-x="1290" 
d="M1200 940q0 -121 -42 -224.5t-115.5 -180t-176 -120.5t-221.5 -44q-121 0 -222.5 44t-175 120.5t-115.5 180t-42 224.5q0 119 42 223.5t115.5 181t175 120.5t222.5 44q119 0 221.5 -44t176 -120.5t115.5 -181t42 -223.5zM1069 940q0 94 -32 175t-88 141.5t-134 95
t-170 34.5t-170 -34.5t-134 -95t-88 -141.5t-32 -175t32 -175t88 -141.5t134 -95t170 -34.5t170 34.5t134 95t88 141.5t32 175zM768 645l-78 193q-10 28 -27.5 40.5t-48.5 12.5h-47v-246h-127v592q39 16 88 24.5t101 8.5q118 0 181.5 -48t63.5 -139q0 -59 -33.5 -97
t-80.5 -54v-4q39 -21 57 -72l92 -211h-141zM745 1077q0 92 -112 92q-17 0 -35.5 -1t-30.5 -5v-178h62q116 0 116 92z" />
    <glyph glyph-name="acute" unicode="&#xb4;" horiz-adv-x="673" 
d="M382 1231h-184l137 270q29 33 70 47.5t80 14.5t68.5 -16.5t39.5 -45.5z" />
    <glyph glyph-name="paragraph" unicode="&#xb6;" horiz-adv-x="1196" 
d="M862 -440v1724q-35 12 -88 20.5t-119 8.5h-26v-1753h-191v1042q-153 33 -249.5 145.5t-96.5 292.5q0 117 39 205t108.5 146.5t166 87t212.5 28.5q154 0 260.5 -23.5t178.5 -56.5v-1867h-195z" />
    <glyph glyph-name="Eth" horiz-adv-x="1516" 
 />
    <glyph glyph-name="onequarter" unicode="&#xbc;" horiz-adv-x="1687" 
d="M1510 213v-213h-155v213h-375v125l350 530h180v-530h86v-125h-86zM529 -33l-133 74l752 1475l131 -74zM294 614v672q-41 -22 -105.5 -41.5t-117.5 -27.5l-31 135q41 6 83 18t81 29.5t71.5 38t55.5 45.5h135v-869h-172zM1361 717q-6 -15 -14 -31q-7 -14 -16 -30.5
t-19 -32.5l-185 -285h234v270v38.5t2 35.5q0 18 2 35h-4z" />
    <glyph glyph-name="onehalf" unicode="&#xbd;" horiz-adv-x="1687" 
d="M984 0l365 465q26 35 44.5 68.5t18.5 74.5q0 58 -38 94.5t-111 36.5q-45 0 -95.5 -10t-91.5 -29l-47 136q55 22 120 35.5t126 13.5q154 0 234.5 -73t80.5 -196q0 -71 -34.5 -128.5t-71.5 -100.5l-211 -242h332v-145h-621zM482 -33l-131 74l750 1475l133 -74zM294 614v672
q-41 -22 -105.5 -41.5t-117.5 -27.5l-31 135q41 6 83 18t81 29.5t71.5 38t55.5 45.5h135v-869h-172z" />
    <glyph glyph-name="threequarters" unicode="&#xbe;" horiz-adv-x="1687" 
d="M1511 213v-213h-155v213h-375v125l350 530h180v-530h86v-125h-86zM571 -33l-131 74l752 1475l131 -74zM1362 717q-6 -15 -15 -31q-6 -14 -15 -30.5t-19 -32.5l-185 -285h234v270v38.5t2 35.5q0 18 2 35h-4zM635 864q0 -121 -86 -193.5t-242 -72.5q-68 0 -135.5 13.5
t-122.5 35.5l53 135q41 -16 94.5 -26.5t110.5 -10.5q78 0 118 32t40 87q0 62 -65.5 97.5t-170.5 35.5h-16v129q110 7 166.5 42.5t56.5 88.5q0 97 -131 97q-45 0 -95 -10.5t-91 -28.5l-50 135q58 23 124.5 36t134.5 13q141 0 210.5 -62.5t69.5 -166.5q0 -64 -40 -111t-95 -74
v-4q65 -24 113.5 -77.5t48.5 -139.5z" />
    <glyph glyph-name="Agrave" unicode="&#xc0;" horiz-adv-x="1304" 
d="M1003 0l-104 346h-492l-104 -346h-289l475 1483h326l477 -1483h-289zM694 1065q-10 31 -17.5 62.5t-11.5 58.5q-6 31 -10 59h-4q-4 -28 -10 -59q-4 -27 -11.5 -58.5t-17.5 -62.5l-149 -506h380zM635 1558l-239 270q19 62 114 62t136 -62l118 -269z" />
    <glyph glyph-name="Aacute" unicode="&#xc1;" horiz-adv-x="1304" 
d="M1003 0l-104 346h-492l-104 -346h-289l475 1483h326l477 -1483h-289zM694 1065q-10 31 -17.5 62.5t-11.5 58.5q-6 31 -10 59h-4q-4 -28 -10 -59q-4 -27 -11.5 -58.5t-17.5 -62.5l-149 -506h380zM540 1559l118 269q40 62 136 62q95 0 114 -62l-239 -270z" />
    <glyph glyph-name="uni1EA2" unicode="&#x1ea2;" horiz-adv-x="1304" 
d="M596 1537l-9 147q31 7 56 16.5t43.5 23t30 30.5t11.5 38q0 38 -26 62t-77 15t-104 -54l-41 103q33 31 79 48t86 17q97 8 161 -43t64 -141q0 -37 -14 -66t-36.5 -51.5t-50 -38.5t-51.5 -26l-18 -80h-104zM1008 0l-104 346h-492l-104 -346h-289l475 1483h326l477 -1483
h-289zM699 1065q-10 31 -17.5 62.5t-11.5 58.5q-6 31 -10 59h-4q-4 -28 -10 -59q-4 -27 -11.5 -58.5t-17.5 -62.5l-149 -506h380z" />
    <glyph glyph-name="Atilde" unicode="&#xc3;" horiz-adv-x="1304" 
d="M1003 0l-104 346h-492l-104 -346h-289l475 1483h326l477 -1483h-289zM694 1065q-10 31 -17.5 62.5t-11.5 58.5q-6 31 -10 59h-4q-4 -28 -10 -59q-4 -27 -11.5 -58.5t-17.5 -62.5l-149 -506h380zM939 1801q1 -83 -44.5 -150t-96.5 -74t-120 27q-48 25 -103.5 46.5
t-83 -14.5t-35.5 -63l-88 25q4 81 41 144t109 76q31 6 77 -8.5t85.5 -37.5t71 -28t51.5 9t41 66z" />
    <glyph glyph-name="uni1EA0" unicode="&#x1ea0;" horiz-adv-x="1304" 
d="M785 -191q0 -53 -39 -91t-92 -38q-56 0 -94.5 38t-38.5 91t38.5 90t94.5 37q53 0 92 -37t39 -90zM1003 0l-104 346h-492l-104 -346h-289l475 1483h326l477 -1483h-289zM694 1065q-10 31 -17.5 62.5t-11.5 58.5q-6 31 -10 59h-4q-4 -28 -10 -59q-4 -27 -11.5 -58.5
t-17.5 -62.5l-149 -506h380z" />
    <glyph glyph-name="Acircumflex" unicode="&#xc2;" horiz-adv-x="1304" 
d="M1003 0l-104 346h-492l-104 -346h-289l475 1483h326l477 -1483h-289zM694 1065q-10 31 -17.5 62.5t-11.5 58.5q-6 31 -10 59h-4q-4 -28 -10 -59q-4 -27 -11.5 -58.5t-17.5 -62.5l-149 -506h380zM887 1533l-230 178l-231 -179l-90 84l222 223q39 43 96 43q55 0 94 -43
l222 -223z" />
    <glyph glyph-name="uni1EA6" unicode="&#x1ea6;" horiz-adv-x="1304" 
d="M934 1738l-239 270q19 62 114 62t136 -62l118 -269zM1003 0l-104 346h-492l-104 -346h-289l475 1483h326l477 -1483h-289zM694 1065q-10 31 -17.5 62.5t-11.5 58.5q-6 31 -10 59h-4q-4 -28 -10 -59q-4 -27 -11.5 -58.5t-17.5 -62.5l-149 -506h380zM887 1533l-230 178
l-231 -179l-90 84l222 223q39 43 96 43q55 0 94 -43l222 -223z" />
    <glyph glyph-name="uni1EA4" unicode="&#x1ea4;" horiz-adv-x="1304" 
d="M1003 0l-104 346h-492l-104 -346h-289l475 1483h326l477 -1483h-289zM694 1065q-10 31 -17.5 62.5t-11.5 58.5q-6 31 -10 59h-4q-4 -28 -10 -59q-4 -27 -11.5 -58.5t-17.5 -62.5l-149 -506h380zM887 1533l-230 178l-231 -179l-90 84l222 223q39 43 96 43q55 0 94 -43
l222 -223zM875 1739l118 269q40 62 136 62q95 0 114 -62l-239 -270z" />
    <glyph glyph-name="uni1EA8" unicode="&#x1ea8;" horiz-adv-x="1304" 
d="M878 1759l-9 147q31 7 56 16.5t43.5 23t30 30.5t11.5 38q0 38 -26 62t-77 15t-104 -54l-41 103q33 31 79 48t86 17q97 8 161 -43t64 -141q0 -37 -14 -66t-36.5 -51.5t-50 -38.5t-51.5 -26l-18 -80h-104zM1008 0l-104 346h-492l-104 -346h-289l475 1483h326l477 -1483
h-289zM699 1065q-10 31 -17.5 62.5t-11.5 58.5q-6 31 -10 59h-4q-4 -28 -10 -59q-4 -27 -11.5 -58.5t-17.5 -62.5l-149 -506h380zM887 1533l-230 178l-231 -179l-90 84l222 223q39 43 96 43q55 0 94 -43l222 -223z" />
    <glyph glyph-name="uni1EAA" unicode="&#x1eaa;" horiz-adv-x="1304" 
d="M1003 0l-104 346h-492l-104 -346h-289l475 1483h326l477 -1483h-289zM694 1065q-10 31 -17.5 62.5t-11.5 58.5q-6 31 -10 59h-4q-4 -28 -10 -59q-4 -27 -11.5 -58.5t-17.5 -62.5l-149 -506h380zM887 1533l-230 178l-231 -179l-90 84l222 223q39 43 96 43q55 0 94 -43
l222 -223zM990 2096q1 -83 -44.5 -150t-96.5 -74t-120 27q-48 25 -103.5 46.5t-83 -14.5t-35.5 -63l-88 25q4 81 41 144t109 76q31 6 77 -8.5t85.5 -37.5t71 -28t51.5 9t41 66z" />
    <glyph glyph-name="uni1EAC" unicode="&#x1eac;" horiz-adv-x="1304" 
d="M785 -191q0 -53 -39 -91t-92 -38q-56 0 -94.5 38t-38.5 91t38.5 90t94.5 37q53 0 92 -37t39 -90zM1003 0l-104 346h-492l-104 -346h-289l475 1483h326l477 -1483h-289zM694 1065q-10 31 -17.5 62.5t-11.5 58.5q-6 31 -10 59h-4q-4 -28 -10 -59q-4 -27 -11.5 -58.5
t-17.5 -62.5l-149 -506h380zM887 1533l-230 178l-231 -179l-90 84l222 223q39 43 96 43q55 0 94 -43l222 -223z" />
    <glyph glyph-name="Abreve" unicode="&#x102;" horiz-adv-x="1304" 
d="M1003 0l-104 346h-492l-104 -346h-289l475 1483h326l477 -1483h-289zM694 1065q-10 31 -17.5 62.5t-11.5 58.5q-6 31 -10 59h-4q-4 -28 -10 -59q-4 -27 -11.5 -58.5t-17.5 -62.5l-149 -506h380zM552 1744q34 -40 101 -40q68 0 100 40q17 22 28 55l154 -36
q-19 -79 -69 -134q-73 -79 -213 -79q-141 0 -213 79q-49 53 -69 130l153 36q11 -31 28 -51z" />
    <glyph glyph-name="uni1EB0" unicode="&#x1eb0;" horiz-adv-x="1304" 
d="M611 1790l-239 270q19 62 114 62t136 -62l118 -269zM1003 0l-104 346h-492l-104 -346h-289l475 1483h326l477 -1483h-289zM694 1065q-10 31 -17.5 62.5t-11.5 58.5q-6 31 -10 59h-4q-4 -28 -10 -59q-4 -27 -11.5 -58.5t-17.5 -62.5l-149 -506h380zM552 1744
q34 -40 101 -40q68 0 100 40q17 22 28 55l154 -36q-19 -79 -69 -134q-73 -79 -213 -79q-141 0 -213 79q-49 53 -69 130l153 36q11 -31 28 -51z" />
    <glyph glyph-name="uni1EAE" unicode="&#x1eae;" horiz-adv-x="1304" 
d="M1003 0l-104 346h-492l-104 -346h-289l475 1483h326l477 -1483h-289zM694 1065q-10 31 -17.5 62.5t-11.5 58.5q-6 31 -10 59h-4q-4 -28 -10 -59q-4 -27 -11.5 -58.5t-17.5 -62.5l-149 -506h380zM592 1791l118 269q40 62 136 62q95 0 114 -62l-239 -270zM552 1744
q34 -40 101 -40q68 0 100 40q17 22 28 55l154 -36q-19 -79 -69 -134q-73 -79 -213 -79q-141 0 -213 79q-49 53 -69 130l153 36q11 -31 28 -51z" />
    <glyph glyph-name="uni1EB2" unicode="&#x1eb2;" horiz-adv-x="1304" 
d="M604 1785l-9 147q31 7 56 16.5t43.5 23t30 30.5t11.5 38q0 38 -26 62t-77 15t-104 -54l-41 103q33 31 79 48t86 17q97 8 161 -43t64 -141q0 -37 -14 -66t-36.5 -51.5t-50 -38.5t-51.5 -26l-18 -80h-104zM1008 0l-104 346h-492l-104 -346h-289l475 1483h326l477 -1483
h-289zM699 1065q-10 31 -17.5 62.5t-11.5 58.5q-6 31 -10 59h-4q-4 -28 -10 -59q-4 -27 -11.5 -58.5t-17.5 -62.5l-149 -506h380zM552 1744q34 -40 101 -40q68 0 100 40q17 22 28 55l154 -36q-19 -79 -69 -134q-73 -79 -213 -79q-141 0 -213 79q-49 53 -69 130l153 36
q11 -31 28 -51z" />
    <glyph glyph-name="uni1EB4" unicode="&#x1eb4;" horiz-adv-x="1304" 
d="M1003 0l-104 346h-492l-104 -346h-289l475 1483h326l477 -1483h-289zM694 1065q-10 31 -17.5 62.5t-11.5 58.5q-6 31 -10 59h-4q-4 -28 -10 -59q-4 -27 -11.5 -58.5t-17.5 -62.5l-149 -506h380zM552 1744q34 -40 101 -40q68 0 100 40q17 22 28 55l154 -36
q-19 -79 -69 -134q-73 -79 -213 -79q-141 0 -213 79q-49 53 -69 130l153 36q11 -31 28 -51zM960 2060q1 -83 -44.5 -150t-96.5 -74t-120 27q-48 25 -103.5 46.5t-83 -14.5t-35.5 -63l-88 25q4 81 41 144t109 76q31 6 77 -8.5t85.5 -37.5t71 -28t51.5 9t41 66z" />
    <glyph glyph-name="uni1EB6" unicode="&#x1eb6;" horiz-adv-x="1304" 
d="M785 -191q0 -53 -39 -91t-92 -38q-56 0 -94.5 38t-38.5 91t38.5 90t94.5 37q53 0 92 -37t39 -90zM1003 0l-104 346h-492l-104 -346h-289l475 1483h326l477 -1483h-289zM694 1065q-10 31 -17.5 62.5t-11.5 58.5q-6 31 -10 59h-4q-4 -28 -10 -59q-4 -27 -11.5 -58.5
t-17.5 -62.5l-149 -506h380zM552 1744q34 -40 101 -40q68 0 100 40q17 22 28 55l154 -36q-19 -79 -69 -134q-73 -79 -213 -79q-141 0 -213 79q-49 53 -69 130l153 36q11 -31 28 -51z" />
    <glyph glyph-name="Egrave" unicode="&#xc8;" horiz-adv-x="976" 
d="M131 0v1483h758v-242h-486v-371h439v-237h-439v-391h486v-242h-758zM481 1558l-240 270q20 62 115 62t136 -62l118 -269z" />
    <glyph glyph-name="Eacute" unicode="&#xc9;" horiz-adv-x="976" 
d="M131 0v1483h758v-242h-486v-371h439v-237h-439v-391h486v-242h-758zM395 1559l119 269q40 62 135 62q96 0 115 -62l-239 -270z" />
    <glyph glyph-name="uni1EBA" unicode="&#x1eba;" horiz-adv-x="976" 
d="M131 0v1483h758v-242h-486v-371h439v-237h-439v-391h486v-242h-758zM450 1537l-9 147q31 7 55.5 16.5t43.5 23t30.5 30.5t11.5 38q0 38 -26 62t-77 15t-104 -54l-41 103q33 31 79 48t86 17q97 8 161 -43t64 -141q0 -37 -14 -66t-36.5 -51.5t-50 -38.5t-51.5 -26l-18 -80
h-104z" />
    <glyph glyph-name="uni1EBC" unicode="&#x1ebc;" horiz-adv-x="976" 
d="M131 0v1483h758v-242h-486v-371h439v-237h-439v-391h486v-242h-758zM789 1801q1 -83 -44.5 -150t-96.5 -74t-120 27q-48 25 -103.5 46.5t-83 -14.5t-35.5 -63l-88 25q4 81 41 144t109 76q31 6 77 -8.5t85.5 -37.5t71 -28t51.5 9t41 66z" />
    <glyph glyph-name="uni1EB8" unicode="&#x1eb8;" horiz-adv-x="976" 
d="M131 0v1483h758v-242h-486v-371h439v-237h-439v-391h486v-242h-758zM642 -191q0 -53 -39 -91t-92 -38q-55 0 -94 38t-39 91t39 90t94 37q53 0 92 -37t39 -90z" />
    <glyph glyph-name="Ecircumflex" unicode="&#xca;" horiz-adv-x="976" 
d="M131 0v1483h758v-242h-486v-371h439v-237h-439v-391h486v-242h-758zM744 1533l-230 178l-231 -179l-90 84l222 223q39 43 96 43q54 0 94 -43l222 -223z" />
    <glyph glyph-name="uni1EC0" unicode="&#x1ec0;" horiz-adv-x="976" 
d="M131 0v1483h758v-242h-486v-371h439v-237h-439v-391h486v-242h-758zM799 1738l-240 270q20 62 115 62t136 -62l118 -269zM744 1533l-230 178l-231 -179l-90 84l222 223q39 43 96 43q54 0 94 -43l222 -223z" />
    <glyph glyph-name="uni1EBE" unicode="&#x1ebe;" horiz-adv-x="976" 
d="M131 0v1483h758v-242h-486v-371h439v-237h-439v-391h486v-242h-758zM746 1747l119 269q40 62 135 62q96 0 115 -62l-239 -270zM744 1533l-230 178l-231 -179l-90 84l222 223q39 43 96 43q54 0 94 -43l222 -223z" />
    <glyph glyph-name="uni1EC2" unicode="&#x1ec2;" horiz-adv-x="976" 
d="M131 0v1483h758v-242h-486v-371h439v-237h-439v-391h486v-242h-758zM759 1726l-9 147q31 7 55.5 16.5t43.5 23t30.5 30.5t11.5 38q0 38 -26 62t-77 15t-104 -54l-41 103q33 31 79 48t86 17q97 8 161 -43t64 -141q0 -37 -14 -66t-36.5 -51.5t-50 -38.5t-51.5 -26l-18 -80
h-104zM744 1533l-230 178l-231 -179l-90 84l222 223q39 43 96 43q54 0 94 -43l222 -223z" />
    <glyph glyph-name="uni1EC4" unicode="&#x1ec4;" horiz-adv-x="976" 
d="M131 0v1483h758v-242h-486v-371h439v-237h-439v-391h486v-242h-758zM744 1533l-230 178l-231 -179l-90 84l222 223q39 43 96 43q54 0 94 -43l222 -223zM843 2097q1 -83 -44.5 -150t-96.5 -74t-120 27q-48 25 -103.5 46.5t-83 -14.5t-35.5 -63l-88 25q4 81 41 144t109 76
q31 6 77 -8.5t85.5 -37.5t71 -28t51.5 9t41 66z" />
    <glyph glyph-name="uni1EC6" unicode="&#x1ec6;" horiz-adv-x="976" 
d="M131 0v1483h758v-242h-486v-371h439v-237h-439v-391h486v-242h-758zM642 -191q0 -53 -39 -91t-92 -38q-55 0 -94 38t-39 91t39 90t94 37q53 0 92 -37t39 -90zM744 1533l-230 178l-231 -179l-90 84l222 223q39 43 96 43q54 0 94 -43l222 -223z" />
    <glyph glyph-name="Igrave" unicode="&#xcc;" horiz-adv-x="540" 
d="M132 0v1483h278v-1483h-278zM267 1558l-239 270q19 62 115 62q95 0 135 -62l119 -269z" />
    <glyph glyph-name="Iacute" unicode="&#xcd;" horiz-adv-x="540" 
d="M131 0v1483h279v-1483h-279zM171 1559l119 269q40 62 135 62q96 0 115 -62l-239 -270z" />
    <glyph glyph-name="uni1EC8" unicode="&#x1ec8;" horiz-adv-x="540" 
d="M131 0v1483h279v-1483h-279zM202 1537l-9 147q30 7 55 16.5t43.5 23t30 30.5t11.5 38q0 38 -26 62t-77 15t-104 -54l-41 103q33 31 79 48t86 17q97 8 161 -43t64 -141q0 -37 -14 -66t-36 -51.5t-50 -38.5t-52 -26l-18 -80h-103z" />
    <glyph glyph-name="Itilde" unicode="&#x128;" horiz-adv-x="540" 
d="M131 0v1483h279v-1483h-279zM602 1785q-10 -90 -56 -148.5t-122 -58.5q-39 0 -65.5 14.5t-49 31.5t-43 31.5t-47.5 14.5q-37 0 -60.5 -27.5t-31.5 -74.5l-119 73q10 91 54 149t120 58q39 0 65.5 -14t50 -31.5t44 -32t47.5 -14.5q37 0 59.5 27.5t30.5 75.5z" />
    <glyph glyph-name="uni1ECA" unicode="&#x1eca;" horiz-adv-x="540" 
d="M132 0v1483h279v-1483h-279zM403 -191q0 -53 -38.5 -91t-92.5 -38q-55 0 -94 38t-39 91t39 90t94 37q54 0 92.5 -37t38.5 -90z" />
    <glyph glyph-name="Ograve" unicode="&#xd2;" 
d="M1192 741q0 -161 -34 -301.5t-102.5 -243t-172 -162t-242.5 -59.5t-242.5 59.5t-172 162t-102.5 243t-34 301.5q0 162 34 302.5t102.5 243t172 161.5t242.5 59t242.5 -59t172 -161.5t102.5 -243t34 -302.5zM913 741q0 115 -17.5 209t-51 161t-85 103.5t-118.5 36.5
q-68 0 -119 -36.5t-85 -103.5t-51 -161t-17 -209q0 -114 17 -208.5t51 -161t85 -103.5t119 -37q67 0 118.5 37t85 103.5t51 161t17.5 208.5zM618 1558l-240 270q20 62 115 62t136 -62l118 -269z" />
    <glyph glyph-name="Oacute" unicode="&#xd3;" 
d="M1192 741q0 -161 -34 -301.5t-102.5 -243t-172 -162t-242.5 -59.5t-242.5 59.5t-172 162t-102.5 243t-34 301.5q0 162 34 302.5t102.5 243t172 161.5t242.5 59t242.5 -59t172 -161.5t102.5 -243t34 -302.5zM913 741q0 115 -17.5 209t-51 161t-85 103.5t-118.5 36.5
q-68 0 -119 -36.5t-85 -103.5t-51 -161t-17 -209q0 -114 17 -208.5t51 -161t85 -103.5t119 -37q67 0 118.5 37t85 103.5t51 161t17.5 208.5zM514 1559l119 269q40 62 135 62q96 0 115 -62l-239 -270z" />
    <glyph glyph-name="uni1ECE" unicode="&#x1ece;" 
d="M1192 741q0 -161 -34 -301.5t-102.5 -243t-172 -162t-242.5 -59.5t-242.5 59.5t-172 162t-102.5 243t-34 301.5q0 162 34 302.5t102.5 243t172 161.5t242.5 59t242.5 -59t172 -161.5t102.5 -243t34 -302.5zM913 741q0 115 -17.5 209t-51 161t-85 103.5t-118.5 36.5
q-68 0 -119 -36.5t-85 -103.5t-51 -161t-17 -209q0 -114 17 -208.5t51 -161t85 -103.5t119 -37q67 0 118.5 37t85 103.5t51 161t17.5 208.5zM569 1537l-9 147q31 7 55.5 16.5t43.5 23t30 30.5t11 38q0 38 -25.5 62t-76.5 15t-104 -54l-41 103q33 31 78.5 48t86.5 17
q97 8 161 -43t64 -141q0 -37 -14 -66t-36.5 -51.5t-50 -38.5t-51.5 -26l-18 -80h-104z" />
    <glyph glyph-name="Otilde" unicode="&#xd5;" 
d="M1192 741q0 -161 -34 -301.5t-102.5 -243t-172 -162t-242.5 -59.5t-242.5 59.5t-172 162t-102.5 243t-34 301.5q0 162 34 302.5t102.5 243t172 161.5t242.5 59t242.5 -59t172 -161.5t102.5 -243t34 -302.5zM913 741q0 115 -17.5 209t-51 161t-85 103.5t-118.5 36.5
q-68 0 -119 -36.5t-85 -103.5t-51 -161t-17 -209q0 -114 17 -208.5t51 -161t85 -103.5t119 -37q67 0 118.5 37t85 103.5t51 161t17.5 208.5zM929 1801q1 -83 -44.5 -150t-96.5 -74t-120 27q-48 25 -103.5 46.5t-83 -14.5t-35.5 -63l-88 25q4 81 41 144t109 76q31 6 77 -8.5
t85.5 -37.5t71 -28t51.5 9t41 66z" />
    <glyph glyph-name="uni1ECC" unicode="&#x1ecc;" 
d="M1192 741q0 -161 -34 -301.5t-102.5 -243t-172 -162t-242.5 -59.5t-242.5 59.5t-172 162t-102.5 243t-34 301.5q0 162 34 302.5t102.5 243t172 161.5t242.5 59t242.5 -59t172 -161.5t102.5 -243t34 -302.5zM913 741q0 115 -17.5 209t-51 161t-85 103.5t-118.5 36.5
q-68 0 -119 -36.5t-85 -103.5t-51 -161t-17 -209q0 -114 17 -208.5t51 -161t85 -103.5t119 -37q67 0 118.5 37t85 103.5t51 161t17.5 208.5zM773 -208q0 -53 -39 -91t-92 -38q-55 0 -94 38t-39 91t39 90t94 37q53 0 92 -37t39 -90z" />
    <glyph glyph-name="Ocircumflex" unicode="&#xd4;" 
d="M1192 741q0 -161 -34 -301.5t-102.5 -243t-172 -162t-242.5 -59.5t-242.5 59.5t-172 162t-102.5 243t-34 301.5q0 162 34 302.5t102.5 243t172 161.5t242.5 59t242.5 -59t172 -161.5t102.5 -243t34 -302.5zM913 741q0 115 -17.5 209t-51 161t-85 103.5t-118.5 36.5
q-68 0 -119 -36.5t-85 -103.5t-51 -161t-17 -209q0 -114 17 -208.5t51 -161t85 -103.5t119 -37q67 0 118.5 37t85 103.5t51 161t17.5 208.5zM875 1533l-230 178l-231 -179l-90 84l222 223q39 43 96 43q54 0 94 -43l222 -223z" />
    <glyph glyph-name="uni1ED2" unicode="&#x1ed2;" 
d="M1192 741q0 -161 -34 -301.5t-102.5 -243t-172 -162t-242.5 -59.5t-242.5 59.5t-172 162t-102.5 243t-34 301.5q0 162 34 302.5t102.5 243t172 161.5t242.5 59t242.5 -59t172 -161.5t102.5 -243t34 -302.5zM913 741q0 115 -17.5 209t-51 161t-85 103.5t-118.5 36.5
q-68 0 -119 -36.5t-85 -103.5t-51 -161t-17 -209q0 -114 17 -208.5t51 -161t85 -103.5t119 -37q67 0 118.5 37t85 103.5t51 161t17.5 208.5zM918 1754l-240 270q20 62 115 62t136 -62l118 -269zM875 1533l-230 178l-231 -179l-90 84l222 223q39 43 96 43q54 0 94 -43
l222 -223z" />
    <glyph glyph-name="uni1ED0" unicode="&#x1ed0;" 
d="M1192 741q0 -161 -34 -301.5t-102.5 -243t-172 -162t-242.5 -59.5t-242.5 59.5t-172 162t-102.5 243t-34 301.5q0 162 34 302.5t102.5 243t172 161.5t242.5 59t242.5 -59t172 -161.5t102.5 -243t34 -302.5zM913 741q0 115 -17.5 209t-51 161t-85 103.5t-118.5 36.5
q-68 0 -119 -36.5t-85 -103.5t-51 -161t-17 -209q0 -114 17 -208.5t51 -161t85 -103.5t119 -37q67 0 118.5 37t85 103.5t51 161t17.5 208.5zM864 1758l119 269q40 62 135 62q96 0 115 -62l-239 -270zM875 1533l-230 178l-231 -179l-90 84l222 223q39 43 96 43q54 0 94 -43
l222 -223z" />
    <glyph glyph-name="uni1ED4" unicode="&#x1ed4;" 
d="M1192 741q0 -161 -34 -301.5t-102.5 -243t-172 -162t-242.5 -59.5t-242.5 59.5t-172 162t-102.5 243t-34 301.5q0 162 34 302.5t102.5 243t172 161.5t242.5 59t242.5 -59t172 -161.5t102.5 -243t34 -302.5zM913 741q0 115 -17.5 209t-51 161t-85 103.5t-118.5 36.5
q-68 0 -119 -36.5t-85 -103.5t-51 -161t-17 -209q0 -114 17 -208.5t51 -161t85 -103.5t119 -37q67 0 118.5 37t85 103.5t51 161t17.5 208.5zM860 1760l-9 147q31 7 55.5 16.5t43.5 23t30 30.5t11 38q0 38 -25.5 62t-76.5 15t-104 -54l-41 103q33 31 78.5 48t86.5 17
q97 8 161 -43t64 -141q0 -37 -14 -66t-36.5 -51.5t-50 -38.5t-51.5 -26l-18 -80h-104zM875 1533l-230 178l-231 -179l-90 84l222 223q39 43 96 43q54 0 94 -43l222 -223z" />
    <glyph glyph-name="uni1ED6" unicode="&#x1ed6;" 
d="M1192 741q0 -161 -34 -301.5t-102.5 -243t-172 -162t-242.5 -59.5t-242.5 59.5t-172 162t-102.5 243t-34 301.5q0 162 34 302.5t102.5 243t172 161.5t242.5 59t242.5 -59t172 -161.5t102.5 -243t34 -302.5zM913 741q0 115 -17.5 209t-51 161t-85 103.5t-118.5 36.5
q-68 0 -119 -36.5t-85 -103.5t-51 -161t-17 -209q0 -114 17 -208.5t51 -161t85 -103.5t119 -37q67 0 118.5 37t85 103.5t51 161t17.5 208.5zM875 1533l-230 178l-231 -179l-90 84l222 223q39 43 96 43q54 0 94 -43l222 -223zM1000 2072q-9 -82 -61.5 -144t-104 -62.5
t-115.5 40.5q-46 30 -98.5 57.5t-83.5 -5t-43 -57.5l-84 34q13 81 57 139t117 62q32 3 75.5 -16.5t80.5 -47t67.5 -36t51.5 3t49 61.5z" />
    <glyph glyph-name="uni1ED8" unicode="&#x1ed8;" 
d="M1192 741q0 -161 -34 -301.5t-102.5 -243t-172 -162t-242.5 -59.5t-242.5 59.5t-172 162t-102.5 243t-34 301.5q0 162 34 302.5t102.5 243t172 161.5t242.5 59t242.5 -59t172 -161.5t102.5 -243t34 -302.5zM913 741q0 115 -17.5 209t-51 161t-85 103.5t-118.5 36.5
q-68 0 -119 -36.5t-85 -103.5t-51 -161t-17 -209q0 -114 17 -208.5t51 -161t85 -103.5t119 -37q67 0 118.5 37t85 103.5t51 161t17.5 208.5zM875 1533l-230 178l-231 -179l-90 84l222 223q39 43 96 43q54 0 94 -43l222 -223zM773 -208q0 -53 -39 -91t-92 -38q-55 0 -94 38
t-39 91t39 90t94 37q53 0 92 -37t39 -90z" />
    <glyph glyph-name="Ugrave" unicode="&#xd9;" horiz-adv-x="1234" 
d="M1104 438q0 -110 -37 -195t-102.5 -143.5t-154.5 -89t-194 -30.5q-104 0 -192 30.5t-153.5 89t-102.5 143.5t-37 195v1045h279v-1047q0 -98 60 -153.5t146 -55.5q88 0 148.5 55.5t60.5 153.5v1047h279v-1045v0zM618 1558l-240 270q20 62 115 62t136 -62l118 -269z" />
    <glyph glyph-name="Uacute" unicode="&#xda;" horiz-adv-x="1234" 
d="M1104 438q0 -110 -37 -195t-102.5 -143.5t-154.5 -89t-194 -30.5q-104 0 -192 30.5t-153.5 89t-102.5 143.5t-37 195v1045h279v-1047q0 -98 60 -153.5t146 -55.5q88 0 148.5 55.5t60.5 153.5v1047h279v-1045v0zM514 1559l119 269q40 62 135 62q96 0 115 -62l-239 -270z
" />
    <glyph glyph-name="uni1EE6" unicode="&#x1ee6;" horiz-adv-x="1234" 
d="M1104 438q0 -110 -37 -195t-102.5 -143.5t-154.5 -89t-194 -30.5q-104 0 -192 30.5t-153.5 89t-102.5 143.5t-37 195v1045h279v-1047q0 -98 60 -153.5t146 -55.5q88 0 148.5 55.5t60.5 153.5v1047h279v-1045v0zM569 1537l-9 147q31 7 55.5 16.5t43.5 23t30.5 30.5
t11.5 38q0 38 -26 62t-77 15t-104 -54l-41 103q33 31 79 48t86 17q97 8 161 -43t64 -141q0 -37 -14 -66t-36.5 -51.5t-50 -38.5t-51.5 -26l-18 -80h-104z" />
    <glyph glyph-name="Utilde" unicode="&#x168;" horiz-adv-x="1234" 
d="M1104 438q0 -110 -37 -195t-102.5 -143.5t-154.5 -89t-194 -30.5q-104 0 -192 30.5t-153.5 89t-102.5 143.5t-37 195v1045h279v-1047q0 -98 60 -153.5t146 -55.5q88 0 148.5 55.5t60.5 153.5v1047h279v-1045v0zM922 1775q-9 -82 -61.5 -144t-104 -62.5t-115.5 40.5
q-46 30 -98.5 57.5t-83.5 -5t-43 -57.5l-84 34q13 81 57 139t117 62q32 3 75.5 -16.5t80.5 -47t67.5 -36t51.5 3t49 61.5z" />
    <glyph glyph-name="uni1EE4" unicode="&#x1ee4;" horiz-adv-x="1234" 
d="M1104 438q0 -110 -37 -195t-102.5 -143.5t-154.5 -89t-194 -30.5q-104 0 -192 30.5t-153.5 89t-102.5 143.5t-37 195v1045h279v-1047q0 -98 60 -153.5t146 -55.5q88 0 148.5 55.5t60.5 153.5v1047h279v-1045v0zM749 -208q0 -53 -38.5 -91t-92.5 -38q-55 0 -94 38t-39 91
t39 90t94 37q54 0 92.5 -37t38.5 -90z" />
    <glyph glyph-name="Uhorn" unicode="&#x1af;" horiz-adv-x="1234" 
d="M1104 1344v-906q0 -110 -37 -195t-102.5 -143.5t-154.5 -89t-194 -30.5q-104 0 -192 30.5t-153.5 89t-102.5 143.5t-37 195v1045h279v-1047q0 -98 60 -153.5t146 -55.5q88 0 148.5 55.5t60.5 153.5v1047h162l59 105q27 19 69 31t100 8q53 -5 85.5 -24.5t34.5 -35.5z" />
    <glyph glyph-name="uni1EEA" unicode="&#x1eea;" horiz-adv-x="1234" 
d="M618 1558l-239 270q19 62 114 62t136 -62l118 -269zM1104 1344v-906q0 -110 -37 -195t-102.5 -143.5t-154.5 -89t-194 -30.5q-104 0 -192 30.5t-153.5 89t-102.5 143.5t-37 195v1045h279v-1047q0 -98 60 -153.5t146 -55.5q89 0 149 55.5t60 153.5v1047h162l59 105
q27 19 69 31t100 8q53 -5 85.5 -24.5t34.5 -35.5z" />
    <glyph glyph-name="uni1EE8" unicode="&#x1ee8;" horiz-adv-x="1234" 
d="M515 1559l118 269q40 62 136 62q95 0 114 -62l-239 -270zM1104 1344v-906q0 -110 -37 -195t-102.5 -143.5t-154.5 -89t-194 -30.5q-104 0 -192 30.5t-153.5 89t-102.5 143.5t-37 195v1045h279v-1047q0 -98 60 -153.5t146 -55.5q89 0 149 55.5t60 153.5v1047h162l59 105
q27 19 69 31t100 8q53 -5 85.5 -24.5t34.5 -35.5z" />
    <glyph glyph-name="uni1EEC" unicode="&#x1eec;" horiz-adv-x="1234" 
d="M569 1537l-9 147q31 7 56 16.5t43.5 23t30 30.5t11.5 38q0 38 -26 62t-77 15t-104 -54l-41 103q33 31 79 48t86 17q97 8 161 -43t64 -141q0 -37 -14 -66t-36.5 -51.5t-50 -38.5t-51.5 -26l-18 -80h-104zM1104 1344v-906q0 -110 -37 -195t-102.5 -143.5t-154.5 -89
t-194 -30.5q-104 0 -192 30.5t-153.5 89t-102.5 143.5t-37 195v1045h279v-1047q0 -98 60 -153.5t146 -55.5q89 0 149 55.5t60 153.5v1047h162l59 105q27 19 69 31t100 8q53 -5 85.5 -24.5t34.5 -35.5z" />
    <glyph glyph-name="uni1EEE" unicode="&#x1eee;" horiz-adv-x="1234" 
d="M1104 1344v-906q0 -110 -37 -195t-102.5 -143.5t-154.5 -89t-194 -30.5q-104 0 -192 30.5t-153.5 89t-102.5 143.5t-37 195v1045h279v-1047q0 -98 60 -153.5t146 -55.5q89 0 149 55.5t60 153.5v1047h162l59 105q27 19 69 31t100 8q53 -5 85.5 -24.5t34.5 -35.5zM922 1775
q-9 -82 -61.5 -144t-104 -62.5t-115.5 40.5q-46 30 -98.5 57.5t-83.5 -5t-43 -57.5l-84 34q13 81 57 139t117 62q32 3 75.5 -16.5t80.5 -47t67.5 -36t51.5 3t49 61.5z" />
    <glyph glyph-name="uni1EF0" unicode="&#x1ef0;" horiz-adv-x="1234" 
d="M750 -208q0 -53 -39 -91t-93 -38q-55 0 -94 38t-39 91t39 90t94 37q54 0 93 -37t39 -90zM1104 1344v-906q0 -110 -37 -195t-102.5 -143.5t-154.5 -89t-194 -30.5q-104 0 -192 30.5t-153.5 89t-102.5 143.5t-37 195v1045h279v-1047q0 -98 60 -153.5t146 -55.5
q89 0 149 55.5t60 153.5v1047h162l59 105q27 19 69 31t100 8q53 -5 85.5 -24.5t34.5 -35.5z" />
    <glyph glyph-name="Ohorn" unicode="&#x1a0;" 
d="M913 741q0 115 -17.5 209t-51 161t-85 103.5t-118.5 36.5q-68 0 -119 -36.5t-85 -103.5t-51 -161t-17 -209q0 -114 17 -208.5t51 -161t85 -103.5t119 -37q67 0 118.5 37t85 103.5t51 161t17.5 208.5zM1014 1341q22 -26 42 -54q68 -103 102 -243.5t34 -302.5
q0 -161 -34 -301.5t-102.5 -243t-172 -162t-242.5 -59.5t-242.5 59.5t-172 162t-102.5 243t-34 301.5q0 162 34 302.5t102.5 243t172 161.5t242.5 59q138 0 241 -58l78 139q27 19 69 31t100 8q53 -5 85.5 -24.5t34.5 -35.5z" />
    <glyph glyph-name="uni1EDC" unicode="&#x1edc;" 
d="M913 741q0 115 -17 209t-51 161t-85 103.5t-119 36.5t-119 -36.5t-85 -103.5t-51 -161t-17 -209q0 -114 17 -208.5t51 -161t85 -103.5t119 -37t119 37t85 103.5t51 161t17 208.5zM618 1558l-239 270q19 62 114 62t136 -62l118 -269zM1014 1341q22 -26 42 -54
q68 -103 102 -243.5t34 -302.5q0 -161 -34 -301.5t-102.5 -243t-172 -162t-242.5 -59.5t-242.5 59.5t-172 162t-102.5 243t-34 301.5q0 162 34 302.5t102.5 243t172 161.5t242.5 59q138 0 241 -58l78 139q27 19 69 31t100 8q53 -5 85.5 -24.5t34.5 -35.5z" />
    <glyph glyph-name="uni1EDA" unicode="&#x1eda;" 
d="M913 741q0 115 -17 209t-51 161t-85 103.5t-119 36.5t-119 -36.5t-85 -103.5t-51 -161t-17 -209q0 -114 17 -208.5t51 -161t85 -103.5t119 -37t119 37t85 103.5t51 161t17 208.5zM515 1559l118 269q40 62 136 62q95 0 114 -62l-239 -270zM1014 1341q22 -26 42 -54
q68 -103 102 -243.5t34 -302.5q0 -161 -34 -301.5t-102.5 -243t-172 -162t-242.5 -59.5t-242.5 59.5t-172 162t-102.5 243t-34 301.5q0 162 34 302.5t102.5 243t172 161.5t242.5 59q138 0 241 -58l78 139q27 19 69 31t100 8q53 -5 85.5 -24.5t34.5 -35.5z" />
    <glyph glyph-name="uni1EDE" unicode="&#x1ede;" 
d="M913 741q0 115 -17 209t-51 161t-85 103.5t-119 36.5t-119 -36.5t-85 -103.5t-51 -161t-17 -209q0 -114 17 -208.5t51 -161t85 -103.5t119 -37t119 37t85 103.5t51 161t17 208.5zM569 1537l-9 147q31 7 56 16.5t43.5 23t30 30.5t11.5 38q0 38 -26 62t-77 15t-104 -54
l-41 103q33 31 79 48t86 17q97 8 161 -43t64 -141q0 -37 -14 -66t-36.5 -51.5t-50 -38.5t-51.5 -26l-18 -80h-104zM1014 1341q22 -26 42 -54q68 -103 102 -243.5t34 -302.5q0 -161 -34 -301.5t-102.5 -243t-172 -162t-242.5 -59.5t-242.5 59.5t-172 162t-102.5 243
t-34 301.5q0 162 34 302.5t102.5 243t172 161.5t242.5 59q138 0 241 -58l78 139q27 19 69 31t100 8q53 -5 85.5 -24.5t34.5 -35.5z" />
    <glyph glyph-name="uni1EE0" unicode="&#x1ee0;" 
d="M913 741q0 115 -17 209t-51 161t-85 103.5t-119 36.5t-119 -36.5t-85 -103.5t-51 -161t-17 -209q0 -114 17 -208.5t51 -161t85 -103.5t119 -37t119 37t85 103.5t51 161t17 208.5zM1014 1341q22 -26 42 -54q68 -103 102 -243.5t34 -302.5q0 -161 -34 -301.5t-102.5 -243
t-172 -162t-242.5 -59.5t-242.5 59.5t-172 162t-102.5 243t-34 301.5q0 162 34 302.5t102.5 243t172 161.5t242.5 59q138 0 241 -58l78 139q27 19 69 31t100 8q53 -5 85.5 -24.5t34.5 -35.5zM965 1783q-9 -82 -61.5 -144t-104 -62.5t-115.5 40.5q-46 30 -98.5 57.5t-83.5 -5
t-43 -57.5l-84 34q13 81 57 139t117 62q32 3 75.5 -16.5t80.5 -47t67.5 -36t51.5 3t49 61.5z" />
    <glyph glyph-name="uni1EE2" unicode="&#x1ee2;" 
d="M913 741q0 115 -17 209t-51 161t-85 103.5t-119 36.5t-119 -36.5t-85 -103.5t-51 -161t-17 -209q0 -114 17 -208.5t51 -161t85 -103.5t119 -37t119 37t85 103.5t51 161t17 208.5zM773 -208q0 -53 -39 -91t-92 -38q-55 0 -94 38t-39 91t39 90t94 37q53 0 92 -37t39 -90z
M1014 1341q22 -26 42 -54q68 -103 102 -243.5t34 -302.5q0 -161 -34 -301.5t-102.5 -243t-172 -162t-242.5 -59.5t-242.5 59.5t-172 162t-102.5 243t-34 301.5q0 162 34 302.5t102.5 243t172 161.5t242.5 59q138 0 241 -58l78 139q27 19 69 31t100 8q53 -5 85.5 -24.5
t34.5 -35.5z" />
    <glyph glyph-name="Ygrave" unicode="&#x1ef2;" horiz-adv-x="1150" 
d="M712 582v-582h-276v582l-422 901h299l258 -611h4l262 611h299zM583 1558l-239 270q20 62 115 62t135 -62l119 -269z" />
    <glyph glyph-name="Yacute" unicode="&#xdd;" horiz-adv-x="1150" 
d="M712 582v-582h-276v582l-422 901h299l258 -611h4l262 611h299zM514 1559l119 269q40 62 135 62t115 -62l-239 -270z" />
    <glyph glyph-name="uni1EF6" unicode="&#x1ef6;" horiz-adv-x="1150" 
d="M712 582v-582h-276v582l-422 901h299l258 -611h4l262 611h299zM543 1537l-9 147q31 7 55.5 16.5t43 23t30 30.5t11.5 38q0 38 -25.5 62t-76.5 15t-105 -54l-41 103q34 31 79.5 48t85.5 17q98 8 161.5 -43t63.5 -141q0 -37 -13.5 -66t-36 -51.5t-50 -38.5t-51.5 -26
l-18 -80h-104z" />
    <glyph glyph-name="uni1EF8" unicode="&#x1ef8;" horiz-adv-x="1150" 
d="M712 582v-582h-276v582l-422 901h299l258 -611h4l262 611h299zM899 1801q1 -83 -44.5 -150t-96.5 -74t-120 27q-48 25 -103.5 46.5t-83 -14.5t-35.5 -63l-88 25q4 81 41 144t109 76q31 6 77 -8.5t85.5 -37.5t71 -28t51.5 9t41 66z" />
    <glyph glyph-name="uni1EF4" unicode="&#x1ef4;" horiz-adv-x="1150" 
d="M712 582v-582h-276v582l-422 901h299l258 -611h4l262 611h299zM707 -208q0 -53 -39 -91t-92 -38q-55 0 -94 38t-39 91t39 90t94 37q53 0 92 -37t39 -90z" />
    <glyph glyph-name="agrave" unicode="&#xe0;" horiz-adv-x="1062" 
d="M945 55q-30 -16 -73 -30.5t-95.5 -25.5t-110.5 -17.5t-118 -6.5q-241 0 -359 93.5t-118 263.5q0 112 52 183t138 112t198 59.5t233 24.5v57q0 86 -53.5 122t-145.5 36q-76 0 -159 -20.5t-138 -45.5l-68 189q68 28 172.5 53.5t221.5 25.5q204 0 313.5 -91t109.5 -302v-680
zM692 532q-74 -4 -141.5 -11t-118 -27.5t-81 -57.5t-30.5 -98q0 -78 57.5 -121t161.5 -43q43 0 86 6t66 17v335zM497 1199l-239 270q19 62 115 62q95 0 135 -62l119 -269z" />
    <glyph glyph-name="aacute" unicode="&#xe1;" horiz-adv-x="1062" 
d="M945 55q-30 -16 -73 -30.5t-95.5 -25.5t-110.5 -17.5t-118 -6.5q-241 0 -359 93.5t-118 263.5q0 112 52 183t138 112t198 59.5t233 24.5v57q0 86 -53.5 122t-145.5 36q-76 0 -159 -20.5t-138 -45.5l-68 189q68 28 172.5 53.5t221.5 25.5q204 0 313.5 -91t109.5 -302v-680
zM692 532q-74 -4 -141.5 -11t-118 -27.5t-81 -57.5t-30.5 -98q0 -78 57.5 -121t161.5 -43q43 0 86 6t66 17v335zM403 1200l118 269q41 62 136 62t115 -62l-240 -270z" />
    <glyph glyph-name="uni1EA3" unicode="&#x1ea3;" horiz-adv-x="1062" 
d="M945 55q-30 -16 -73 -30.5t-95.5 -25.5t-110.5 -17.5t-118 -6.5q-241 0 -359 93.5t-118 263.5q0 112 52 183t138 112t198 59.5t233 24.5v57q0 86 -53.5 122t-145.5 36q-76 0 -159 -20.5t-138 -45.5l-68 189q68 28 172.5 53.5t221.5 25.5q204 0 313.5 -91t109.5 -302v-680
zM692 532q-74 -4 -141.5 -11t-118 -27.5t-81 -57.5t-30.5 -98q0 -78 57.5 -121t161.5 -43q43 0 86 6t66 17v335zM458 1178l-9 147q30 7 55 16.5t43.5 23t30 30.5t11.5 38q0 38 -26 62t-77 15t-104 -54l-41 103q33 31 79 48t86 17q97 8 161 -43t64 -141q0 -37 -14 -66
t-36 -51.5t-50 -38.5t-52 -26l-18 -80h-103z" />
    <glyph glyph-name="atilde" unicode="&#xe3;" horiz-adv-x="1062" 
d="M945 55q-30 -16 -73 -30.5t-95.5 -25.5t-110.5 -17.5t-118 -6.5q-241 0 -359 93.5t-118 263.5q0 112 52 183t138 112t198 59.5t233 24.5v57q0 86 -53.5 122t-145.5 36q-76 0 -159 -20.5t-138 -45.5l-68 189q68 28 172.5 53.5t221.5 25.5q204 0 313.5 -91t109.5 -302v-680
zM692 532q-74 -4 -141.5 -11t-118 -27.5t-81 -57.5t-30.5 -98q0 -78 57.5 -121t161.5 -43q43 0 86 6t66 17v335zM809 1425q1 -83 -44 -150t-96 -74t-120 27q-49 25 -104.5 46.5t-82.5 -14.5t-36 -63l-88 25q4 81 41.5 144t108.5 76q32 6 77.5 -8.5t85.5 -37.5t71.5 -28t51 9
t40.5 66z" />
    <glyph glyph-name="uni1EA1" unicode="&#x1ea1;" horiz-adv-x="1062" 
d="M945 55q-30 -16 -73 -30.5t-95.5 -25.5t-110.5 -17.5t-118 -6.5q-241 0 -359 93.5t-118 263.5q0 112 52 183t138 112t198 59.5t233 24.5v57q0 86 -53.5 122t-145.5 36q-76 0 -159 -20.5t-138 -45.5l-68 189q68 28 172.5 53.5t221.5 25.5q204 0 313.5 -91t109.5 -302v-680
zM692 532q-74 -4 -141.5 -11t-118 -27.5t-81 -57.5t-30.5 -98q0 -78 57.5 -121t161.5 -43q43 0 86 6t66 17v335zM677 -208q0 -53 -39 -91t-93 -38q-55 0 -94 38t-39 91t39 90t94 37q54 0 93 -37t39 -90z" />
    <glyph glyph-name="acircumflex" unicode="&#xe2;" horiz-adv-x="1062" 
d="M945 55q-30 -16 -73 -30.5t-95.5 -25.5t-110.5 -17.5t-118 -6.5q-241 0 -359 93.5t-118 263.5q0 112 52 183t138 112t198 59.5t233 24.5v57q0 86 -53.5 122t-145.5 36q-76 0 -159 -20.5t-138 -45.5l-68 189q68 28 172.5 53.5t221.5 25.5q204 0 313.5 -91t109.5 -302v-680
zM692 532q-74 -4 -141.5 -11t-118 -27.5t-81 -57.5t-30.5 -98q0 -78 57.5 -121t161.5 -43q43 0 86 6t66 17v335zM744 1173l-230 178l-230 -179l-91 84l222 223q40 43 96 43q55 0 94 -43l222 -223z" />
    <glyph glyph-name="uni1EA7" unicode="&#x1ea7;" horiz-adv-x="1062" 
d="M945 55q-30 -16 -73 -30.5t-95.5 -25.5t-110.5 -17.5t-118 -6.5q-241 0 -359 93.5t-118 263.5q0 112 52 183t138 112t198 59.5t233 24.5v57q0 86 -53.5 122t-145.5 36q-76 0 -159 -20.5t-138 -45.5l-68 189q68 28 172.5 53.5t221.5 25.5q204 0 313.5 -91t109.5 -302v-680
zM692 532q-74 -4 -141.5 -11t-118 -27.5t-81 -57.5t-30.5 -98q0 -78 57.5 -121t161.5 -43q43 0 86 6t66 17v335zM779 1387l-239 270q19 62 115 62q95 0 135 -62l119 -269zM744 1173l-230 178l-230 -179l-91 84l222 223q40 43 96 43q55 0 94 -43l222 -223z" />
    <glyph glyph-name="uni1EA5" unicode="&#x1ea5;" horiz-adv-x="1062" 
d="M945 55q-30 -16 -73 -30.5t-95.5 -25.5t-110.5 -17.5t-118 -6.5q-241 0 -359 93.5t-118 263.5q0 112 52 183t138 112t198 59.5t233 24.5v57q0 86 -53.5 122t-145.5 36q-76 0 -159 -20.5t-138 -45.5l-68 189q68 28 172.5 53.5t221.5 25.5q204 0 313.5 -91t109.5 -302v-680
zM692 532q-74 -4 -141.5 -11t-118 -27.5t-81 -57.5t-30.5 -98q0 -78 57.5 -121t161.5 -43q43 0 86 6t66 17v335zM754 1388l118 269q41 62 136 62t115 -62l-240 -270zM744 1173l-230 178l-230 -179l-91 84l222 223q40 43 96 43q55 0 94 -43l222 -223z" />
    <glyph glyph-name="uni1EA9" unicode="&#x1ea9;" horiz-adv-x="1062" 
d="M945 55q-30 -16 -73 -30.5t-95.5 -25.5t-110.5 -17.5t-118 -6.5q-241 0 -359 93.5t-118 263.5q0 112 52 183t138 112t198 59.5t233 24.5v57q0 86 -53.5 122t-145.5 36q-76 0 -159 -20.5t-138 -45.5l-68 189q68 28 172.5 53.5t221.5 25.5q204 0 313.5 -91t109.5 -302v-680
zM692 532q-74 -4 -141.5 -11t-118 -27.5t-81 -57.5t-30.5 -98q0 -78 57.5 -121t161.5 -43q43 0 86 6t66 17v335zM731 1401l-9 147q30 7 55 16.5t43.5 23t30 30.5t11.5 38q0 38 -26 62t-77 15t-104 -54l-41 103q33 31 79 48t86 17q97 8 161 -43t64 -141q0 -37 -14 -66
t-36 -51.5t-50 -38.5t-52 -26l-18 -80h-103zM744 1173l-230 178l-230 -179l-91 84l222 223q40 43 96 43q55 0 94 -43l222 -223z" />
    <glyph glyph-name="uni1EAB" unicode="&#x1eab;" horiz-adv-x="1062" 
d="M945 55q-30 -16 -73 -30.5t-95.5 -25.5t-110.5 -17.5t-118 -6.5q-241 0 -359 93.5t-118 263.5q0 112 52 183t138 112t198 59.5t233 24.5v57q0 86 -53.5 122t-145.5 36q-76 0 -159 -20.5t-138 -45.5l-68 189q68 28 172.5 53.5t221.5 25.5q204 0 313.5 -91t109.5 -302v-680
zM692 532q-74 -4 -141.5 -11t-118 -27.5t-81 -57.5t-30.5 -98q0 -78 57.5 -121t161.5 -43q43 0 86 6t66 17v335zM869 1742q1 -83 -44 -150t-96 -74t-120 27q-49 25 -104.5 46.5t-82.5 -14.5t-36 -63l-88 25q4 81 41.5 144t108.5 76q32 6 77.5 -8.5t85.5 -37.5t71.5 -28t51 9
t40.5 66zM744 1173l-230 178l-230 -179l-91 84l222 223q40 43 96 43q55 0 94 -43l222 -223z" />
    <glyph glyph-name="uni1EAD" unicode="&#x1ead;" horiz-adv-x="1062" 
d="M945 55q-30 -16 -73 -30.5t-95.5 -25.5t-110.5 -17.5t-118 -6.5q-241 0 -359 93.5t-118 263.5q0 112 52 183t138 112t198 59.5t233 24.5v57q0 86 -53.5 122t-145.5 36q-76 0 -159 -20.5t-138 -45.5l-68 189q68 28 172.5 53.5t221.5 25.5q204 0 313.5 -91t109.5 -302v-680
zM692 532q-74 -4 -141.5 -11t-118 -27.5t-81 -57.5t-30.5 -98q0 -78 57.5 -121t161.5 -43q43 0 86 6t66 17v335zM677 -208q0 -53 -39 -91t-93 -38q-55 0 -94 38t-39 91t39 90t94 37q54 0 93 -37t39 -90zM744 1173l-230 178l-230 -179l-91 84l222 223q40 43 96 43
q55 0 94 -43l222 -223z" />
    <glyph glyph-name="abreve" unicode="&#x103;" horiz-adv-x="1062" 
d="M945 55q-30 -16 -73 -30.5t-95.5 -25.5t-110.5 -17.5t-118 -6.5q-241 0 -359 93.5t-118 263.5q0 112 52 183t138 112t198 59.5t233 24.5v57q0 86 -53.5 122t-145.5 36q-76 0 -159 -20.5t-138 -45.5l-68 189q68 28 172.5 53.5t221.5 25.5q204 0 313.5 -91t109.5 -302v-680
zM692 532q-74 -4 -141.5 -11t-118 -27.5t-81 -57.5t-30.5 -98q0 -78 57.5 -121t161.5 -43q43 0 86 6t66 17v335zM417 1382q34 -40 101 -40q68 0 100 40q17 22 28 55l154 -36q-19 -79 -69 -134q-73 -79 -213 -79q-141 0 -213 79q-49 53 -69 130l153 36q11 -31 28 -51z" />
    <glyph glyph-name="uni1EB1" unicode="&#x1eb1;" horiz-adv-x="1062" 
d="M945 55q-30 -16 -73 -30.5t-95.5 -25.5t-110.5 -17.5t-118 -6.5q-241 0 -359 93.5t-118 263.5q0 112 52 183t138 112t198 59.5t233 24.5v57q0 86 -53.5 122t-145.5 36q-76 0 -159 -20.5t-138 -45.5l-68 189q68 28 172.5 53.5t221.5 25.5q204 0 313.5 -91t109.5 -302v-680
zM692 532q-74 -4 -141.5 -11t-118 -27.5t-81 -57.5t-30.5 -98q0 -78 57.5 -121t161.5 -43q43 0 86 6t66 17v335zM478 1438l-239 270q19 62 115 62q95 0 135 -62l119 -269zM417 1382q34 -40 101 -40q68 0 100 40q17 22 28 55l154 -36q-19 -79 -69 -134q-73 -79 -213 -79
q-141 0 -213 79q-49 53 -69 130l153 36q11 -31 28 -51z" />
    <glyph glyph-name="uni1EAF" unicode="&#x1eaf;" horiz-adv-x="1062" 
d="M945 55q-30 -16 -73 -30.5t-95.5 -25.5t-110.5 -17.5t-118 -6.5q-241 0 -359 93.5t-118 263.5q0 112 52 183t138 112t198 59.5t233 24.5v57q0 86 -53.5 122t-145.5 36q-76 0 -159 -20.5t-138 -45.5l-68 189q68 28 172.5 53.5t221.5 25.5q204 0 313.5 -91t109.5 -302v-680
zM692 532q-74 -4 -141.5 -11t-118 -27.5t-81 -57.5t-30.5 -98q0 -78 57.5 -121t161.5 -43q43 0 86 6t66 17v335zM455 1431l118 269q41 62 136 62t115 -62l-240 -270zM417 1382q34 -40 101 -40q68 0 100 40q17 22 28 55l154 -36q-19 -79 -69 -134q-73 -79 -213 -79
q-141 0 -213 79q-49 53 -69 130l153 36q11 -31 28 -51z" />
    <glyph glyph-name="uni1EB3" unicode="&#x1eb3;" horiz-adv-x="1062" 
d="M945 55q-30 -16 -73 -30.5t-95.5 -25.5t-110.5 -17.5t-118 -6.5q-241 0 -359 93.5t-118 263.5q0 112 52 183t138 112t198 59.5t233 24.5v57q0 86 -53.5 122t-145.5 36q-76 0 -159 -20.5t-138 -45.5l-68 189q68 28 172.5 53.5t221.5 25.5q204 0 313.5 -91t109.5 -302v-680
zM692 532q-74 -4 -141.5 -11t-118 -27.5t-81 -57.5t-30.5 -98q0 -78 57.5 -121t161.5 -43q43 0 86 6t66 17v335zM475 1425l-9 147q30 7 55 16.5t43.5 23t30 30.5t11.5 38q0 38 -26 62t-77 15t-104 -54l-41 103q33 31 79 48t86 17q97 8 161 -43t64 -141q0 -37 -14 -66
t-36 -51.5t-50 -38.5t-52 -26l-18 -80h-103zM417 1382q34 -40 101 -40q68 0 100 40q17 22 28 55l154 -36q-19 -79 -69 -134q-73 -79 -213 -79q-141 0 -213 79q-49 53 -69 130l153 36q11 -31 28 -51z" />
    <glyph glyph-name="uni1EB5" unicode="&#x1eb5;" horiz-adv-x="1062" 
d="M945 55q-30 -16 -73 -30.5t-95.5 -25.5t-110.5 -17.5t-118 -6.5q-241 0 -359 93.5t-118 263.5q0 112 52 183t138 112t198 59.5t233 24.5v57q0 86 -53.5 122t-145.5 36q-76 0 -159 -20.5t-138 -45.5l-68 189q68 28 172.5 53.5t221.5 25.5q204 0 313.5 -91t109.5 -302v-680
zM692 532q-74 -4 -141.5 -11t-118 -27.5t-81 -57.5t-30.5 -98q0 -78 57.5 -121t161.5 -43q43 0 86 6t66 17v335zM869 1700q1 -83 -44 -150t-96 -74t-120 27q-49 25 -104.5 46.5t-82.5 -14.5t-36 -63l-88 25q4 81 41.5 144t108.5 76q32 6 77.5 -8.5t85.5 -37.5t71.5 -28t51 9
t40.5 66zM417 1382q34 -40 101 -40q68 0 100 40q17 22 28 55l154 -36q-19 -79 -69 -134q-73 -79 -213 -79q-141 0 -213 79q-49 53 -69 130l153 36q11 -31 28 -51z" />
    <glyph glyph-name="uni1EB7" unicode="&#x1eb7;" horiz-adv-x="1062" 
d="M945 55q-30 -16 -73 -30.5t-95.5 -25.5t-110.5 -17.5t-118 -6.5q-241 0 -359 93.5t-118 263.5q0 112 52 183t138 112t198 59.5t233 24.5v57q0 86 -53.5 122t-145.5 36q-76 0 -159 -20.5t-138 -45.5l-68 189q68 28 172.5 53.5t221.5 25.5q204 0 313.5 -91t109.5 -302v-680
zM692 532q-74 -4 -141.5 -11t-118 -27.5t-81 -57.5t-30.5 -98q0 -78 57.5 -121t161.5 -43q43 0 86 6t66 17v335zM677 -208q0 -53 -39 -91t-93 -38q-55 0 -94 38t-39 91t39 90t94 37q54 0 93 -37t39 -90zM417 1382q34 -40 101 -40q68 0 100 40q17 22 28 55l154 -36
q-19 -79 -69 -134q-73 -79 -213 -79q-141 0 -213 79q-49 53 -69 130l153 36q11 -31 28 -51z" />
    <glyph glyph-name="egrave" unicode="&#xe8;" horiz-adv-x="1112" 
d="M1029 627v-46.5t-4 -48.5l-682 -96q19 -123 97.5 -182t195.5 -59q80 0 160 19t135 50l76 -209q-66 -35 -170.5 -57.5t-220.5 -22.5q-132 0 -231 42t-166.5 119t-102.5 183.5t-35 233.5t34 232.5t97.5 182t154.5 118.5t206 42q110 0 195 -35.5t143.5 -102t88 -159
t29.5 -204.5zM769 676q0 125 -54 187.5t-149 62.5q-104 0 -170.5 -79t-70.5 -235zM537 1199l-239 270q19 62 114 62t136 -62l118 -269z" />
    <glyph glyph-name="eacute" unicode="&#xe9;" horiz-adv-x="1112" 
d="M1029 627v-46.5t-4 -48.5l-682 -96q19 -123 97.5 -182t195.5 -59q80 0 160 19t135 50l76 -209q-66 -35 -170.5 -57.5t-220.5 -22.5q-132 0 -231 42t-166.5 119t-102.5 183.5t-35 233.5t34 232.5t97.5 182t154.5 118.5t206 42q110 0 195 -35.5t143.5 -102t88 -159
t29.5 -204.5zM769 676q0 125 -54 187.5t-149 62.5q-104 0 -170.5 -79t-70.5 -235zM458 1200l118 269q40 62 136 62q95 0 114 -62l-239 -270z" />
    <glyph glyph-name="uni1EBB" unicode="&#x1ebb;" horiz-adv-x="1112" 
d="M1029 627v-46.5t-4 -48.5l-682 -96q19 -123 97.5 -182t195.5 -59q80 0 160 19t135 50l76 -209q-66 -35 -170.5 -57.5t-220.5 -22.5q-132 0 -231 42t-166.5 119t-102.5 183.5t-35 233.5t34 232.5t97.5 182t154.5 118.5t206 42q110 0 195 -35.5t143.5 -102t88 -159
t29.5 -204.5zM769 676q0 125 -54 187.5t-149 62.5q-104 0 -170.5 -79t-70.5 -235zM508 1178l-10 147q31 7 56 16.5t43.5 23t30 30.5t11.5 38q0 38 -26 62t-77 15t-104 -54l-41 103q33 31 79 48t86 17q97 8 161 -43t64 -141q0 -37 -14 -66t-36.5 -51.5t-50 -38.5t-51.5 -26
l-18 -80h-103z" />
    <glyph glyph-name="uni1EBD" unicode="&#x1ebd;" horiz-adv-x="1112" 
d="M1029 627v-46.5t-4 -48.5l-682 -96q19 -123 97.5 -182t195.5 -59q80 0 160 19t135 50l76 -209q-66 -35 -170.5 -57.5t-220.5 -22.5q-132 0 -231 42t-166.5 119t-102.5 183.5t-35 233.5t34 232.5t97.5 182t154.5 118.5t206 42q110 0 195 -35.5t143.5 -102t88 -159
t29.5 -204.5zM769 676q0 125 -54 187.5t-149 62.5q-104 0 -170.5 -79t-70.5 -235zM869 1425q1 -83 -44.5 -150t-96.5 -74t-119 27q-49 25 -104.5 46.5t-82.5 -14.5t-36 -63l-88 25q4 81 41 144t109 76q31 6 77 -8.5t85.5 -37.5t71 -28t51.5 9t41 66z" />
    <glyph glyph-name="uni1EB9" unicode="&#x1eb9;" horiz-adv-x="1112" 
d="M1029 627v-46.5t-4 -48.5l-682 -96q19 -123 97.5 -182t195.5 -59q80 0 160 19t135 50l76 -209q-66 -35 -170.5 -57.5t-220.5 -22.5q-132 0 -231 42t-166.5 119t-102.5 183.5t-35 233.5t34 232.5t97.5 182t154.5 118.5t206 42q110 0 195 -35.5t143.5 -102t88 -159
t29.5 -204.5zM769 676q0 125 -54 187.5t-149 62.5q-104 0 -170.5 -79t-70.5 -235zM706 -208q0 -53 -38.5 -91t-92.5 -38q-55 0 -94 38t-39 91t39 90t94 37q54 0 92.5 -37t38.5 -90z" />
    <glyph glyph-name="ecircumflex" unicode="&#xea;" horiz-adv-x="1112" 
d="M1029 627v-46.5t-4 -48.5l-682 -96q19 -123 97.5 -182t195.5 -59q80 0 160 19t135 50l76 -209q-66 -35 -170.5 -57.5t-220.5 -22.5q-132 0 -231 42t-166.5 119t-102.5 183.5t-35 233.5t34 232.5t97.5 182t154.5 118.5t206 42q110 0 195 -35.5t143.5 -102t88 -159
t29.5 -204.5zM769 676q0 125 -54 187.5t-149 62.5q-104 0 -170.5 -79t-70.5 -235zM814 1173l-230 178l-231 -179l-90 84l222 223q39 43 96 43q55 0 94 -43l222 -223z" />
    <glyph glyph-name="uni1EC1" unicode="&#x1ec1;" horiz-adv-x="1112" 
d="M1029 627v-46.5t-4 -48.5l-682 -96q19 -123 97.5 -182t195.5 -59q80 0 160 19t135 50l76 -209q-66 -35 -170.5 -57.5t-220.5 -22.5q-132 0 -231 42t-166.5 119t-102.5 183.5t-35 233.5t34 232.5t97.5 182t154.5 118.5t206 42q110 0 195 -35.5t143.5 -102t88 -159
t29.5 -204.5zM769 676q0 125 -54 187.5t-149 62.5q-104 0 -170.5 -79t-70.5 -235zM853 1379l-239 270q19 62 114 62t136 -62l118 -269zM814 1173l-230 178l-231 -179l-90 84l222 223q39 43 96 43q55 0 94 -43l222 -223z" />
    <glyph glyph-name="uni1EBF" unicode="&#x1ebf;" horiz-adv-x="1112" 
d="M1029 627v-46.5t-4 -48.5l-682 -96q19 -123 97.5 -182t195.5 -59q80 0 160 19t135 50l76 -209q-66 -35 -170.5 -57.5t-220.5 -22.5q-132 0 -231 42t-166.5 119t-102.5 183.5t-35 233.5t34 232.5t97.5 182t154.5 118.5t206 42q110 0 195 -35.5t143.5 -102t88 -159
t29.5 -204.5zM769 676q0 125 -54 187.5t-149 62.5q-104 0 -170.5 -79t-70.5 -235zM801 1387l118 269q40 62 136 62q95 0 114 -62l-239 -270zM814 1173l-230 178l-231 -179l-90 84l222 223q39 43 96 43q55 0 94 -43l222 -223z" />
    <glyph glyph-name="uni1EC3" unicode="&#x1ec3;" horiz-adv-x="1112" 
d="M1029 627v-46.5t-4 -48.5l-682 -96q19 -123 97.5 -182t195.5 -59q80 0 160 19t135 50l76 -209q-66 -35 -170.5 -57.5t-220.5 -22.5q-132 0 -231 42t-166.5 119t-102.5 183.5t-35 233.5t34 232.5t97.5 182t154.5 118.5t206 42q110 0 195 -35.5t143.5 -102t88 -159
t29.5 -204.5zM769 676q0 125 -54 187.5t-149 62.5q-104 0 -170.5 -79t-70.5 -235zM825 1383l-10 147q31 7 56 16.5t43.5 23t30 30.5t11.5 38q0 38 -26 62t-77 15t-104 -54l-41 103q33 31 79 48t86 17q97 8 161 -43t64 -141q0 -37 -14 -66t-36.5 -51.5t-50 -38.5t-51.5 -26
l-18 -80h-103zM814 1173l-230 178l-231 -179l-90 84l222 223q39 43 96 43q55 0 94 -43l222 -223z" />
    <glyph glyph-name="uni1EC5" unicode="&#x1ec5;" horiz-adv-x="1112" 
d="M1029 627v-46.5t-4 -48.5l-682 -96q19 -123 97.5 -182t195.5 -59q80 0 160 19t135 50l76 -209q-66 -35 -170.5 -57.5t-220.5 -22.5q-132 0 -231 42t-166.5 119t-102.5 183.5t-35 233.5t34 232.5t97.5 182t154.5 118.5t206 42q110 0 195 -35.5t143.5 -102t88 -159
t29.5 -204.5zM769 676q0 125 -54 187.5t-149 62.5q-104 0 -170.5 -79t-70.5 -235zM937 1733q1 -83 -44.5 -150t-96.5 -74t-119 27q-49 25 -104.5 46.5t-82.5 -14.5t-36 -63l-88 25q4 81 41 144t109 76q31 6 77 -8.5t85.5 -37.5t71 -28t51.5 9t41 66zM814 1173l-230 178
l-231 -179l-90 84l222 223q39 43 96 43q55 0 94 -43l222 -223z" />
    <glyph glyph-name="uni1EC7" unicode="&#x1ec7;" horiz-adv-x="1112" 
d="M1029 627v-46.5t-4 -48.5l-682 -96q19 -123 97.5 -182t195.5 -59q80 0 160 19t135 50l76 -209q-66 -35 -170.5 -57.5t-220.5 -22.5q-132 0 -231 42t-166.5 119t-102.5 183.5t-35 233.5t34 232.5t97.5 182t154.5 118.5t206 42q110 0 195 -35.5t143.5 -102t88 -159
t29.5 -204.5zM769 676q0 125 -54 187.5t-149 62.5q-104 0 -170.5 -79t-70.5 -235zM706 -208q0 -53 -38.5 -91t-92.5 -38q-55 0 -94 38t-39 91t39 90t94 37q54 0 92.5 -37t38.5 -90zM814 1173l-230 178l-231 -179l-90 84l222 223q39 43 96 43q55 0 94 -43l222 -223z" />
    <glyph glyph-name="igrave" unicode="&#xec;" horiz-adv-x="516" 
d="M123 0v1104h269v-1104h-269zM247 1199l-239 270q19 62 115 62q95 0 135 -62l119 -269z" />
    <glyph glyph-name="iacute" unicode="&#xed;" horiz-adv-x="516" 
d="M123 0v1104h268v-1104h-268zM159 1200l118 269q41 62 136 62t114 -62l-239 -270z" />
    <glyph glyph-name="uni1EC9" unicode="&#x1ec9;" horiz-adv-x="516" 
d="M123 0v1104h269v-1104h-269zM218 1178l-9 147q30 7 55 16.5t43.5 23t30 30.5t11.5 38q0 38 -26 62t-77 15t-104 -54l-41 103q33 31 79 48t86 17q97 8 161 -43t64 -141q0 -37 -14 -66t-36 -51.5t-50 -38.5t-52 -26l-18 -80h-103z" />
    <glyph glyph-name="itilde" unicode="&#x129;" horiz-adv-x="516" 
d="M123 0v1104h268v-1104h-268zM588 1425q1 -83 -44.5 -150t-96.5 -74t-120 27q-48 25 -103.5 46.5t-83 -14.5t-35.5 -63l-88 25q4 81 41 144t109 76q31 6 77 -8.5t85.5 -37.5t71 -28t51.5 9t41 66z" />
    <glyph glyph-name="uni1ECB" unicode="&#x1ecb;" horiz-adv-x="516" 
d="M411 1432q0 -64 -45 -108t-108 -44q-66 0 -110 44t-44 108q0 63 44 106t110 43q63 0 108 -43t45 -106zM116 0v1104h268v-1104h-268zM382 -208q0 -53 -39 -91t-92 -38q-56 0 -94.5 38t-38.5 91t38.5 90t94.5 37q53 0 92 -37t39 -90z" />
    <glyph glyph-name="ograve" unicode="&#xf2;" horiz-adv-x="1124" 
d="M1042 553q0 -123 -32 -229.5t-93.5 -183.5t-150.5 -121t-204 -44q-116 0 -205.5 44t-151 121t-93 183.5t-31.5 229.5t31.5 228.5t93 182t151 120.5t205.5 44q115 0 204 -44t150.5 -120.5t93.5 -182t32 -228.5zM773 555q0 166 -52 260t-159 94q-108 0 -160.5 -94
t-52.5 -260t52.5 -259t160.5 -93q107 0 159 93t52 259zM520 1199l-239 270q19 62 114 62t136 -62l118 -269z" />
    <glyph glyph-name="oacute" unicode="&#xf3;" horiz-adv-x="1124" 
d="M1042 553q0 -123 -32 -229.5t-93.5 -183.5t-150.5 -121t-204 -44q-116 0 -205.5 44t-151 121t-93 183.5t-31.5 229.5t31.5 228.5t93 182t151 120.5t205.5 44q115 0 204 -44t150.5 -120.5t93.5 -182t32 -228.5zM773 555q0 166 -52 260t-159 94q-108 0 -160.5 -94
t-52.5 -260t52.5 -259t160.5 -93q107 0 159 93t52 259zM443 1200l118 269q40 62 136 62q95 0 114 -62l-239 -270z" />
    <glyph glyph-name="uni1ECF" unicode="&#x1ecf;" horiz-adv-x="1124" 
d="M1042 553q0 -123 -32 -229.5t-93.5 -183.5t-150.5 -121t-204 -44q-116 0 -205.5 44t-151 121t-93 183.5t-31.5 229.5t31.5 228.5t93 182t151 120.5t205.5 44q115 0 204 -44t150.5 -120.5t93.5 -182t32 -228.5zM773 555q0 166 -52 260t-159 94q-108 0 -160.5 -94
t-52.5 -260t52.5 -259t160.5 -93q107 0 159 93t52 259zM525 1178l-10 147q31 7 56 16.5t43.5 23t30 30.5t11.5 38q0 38 -26 62t-77 15t-104 -54l-41 103q33 31 79 48t86 17q97 8 161 -43t64 -141q0 -37 -14 -66t-36.5 -51.5t-50 -38.5t-51.5 -26l-18 -80h-103z" />
    <glyph glyph-name="otilde" unicode="&#xf5;" horiz-adv-x="1124" 
d="M1042 553q0 -123 -32 -229.5t-93.5 -183.5t-150.5 -121t-204 -44q-116 0 -205.5 44t-151 121t-93 183.5t-31.5 229.5t31.5 228.5t93 182t151 120.5t205.5 44q115 0 204 -44t150.5 -120.5t93.5 -182t32 -228.5zM773 555q0 166 -52 260t-159 94q-108 0 -160.5 -94
t-52.5 -260t52.5 -259t160.5 -93q107 0 159 93t52 259zM869 1425q1 -83 -44.5 -150t-96.5 -74t-119 27q-49 25 -104.5 46.5t-82.5 -14.5t-36 -63l-88 25q4 81 41 144t109 76q31 6 77 -8.5t85.5 -37.5t71 -28t51.5 9t41 66z" />
    <glyph glyph-name="uni1ECD" unicode="&#x1ecd;" horiz-adv-x="1124" 
d="M1042 553q0 -123 -32 -229.5t-93.5 -183.5t-150.5 -121t-204 -44q-116 0 -205.5 44t-151 121t-93 183.5t-31.5 229.5t31.5 228.5t93 182t151 120.5t205.5 44q115 0 204 -44t150.5 -120.5t93.5 -182t32 -228.5zM773 555q0 166 -52 260t-159 94q-108 0 -160.5 -94
t-52.5 -260t52.5 -259t160.5 -93q107 0 159 93t52 259zM693 -208q0 -53 -38.5 -91t-92.5 -38q-55 0 -94 38t-39 91t39 90t94 37q54 0 92.5 -37t38.5 -90z" />
    <glyph glyph-name="ocircumflex" unicode="&#xf4;" horiz-adv-x="1124" 
d="M1042 553q0 -123 -32 -229.5t-93.5 -183.5t-150.5 -121t-204 -44q-116 0 -205.5 44t-151 121t-93 183.5t-31.5 229.5t31.5 228.5t93 182t151 120.5t205.5 44q115 0 204 -44t150.5 -120.5t93.5 -182t32 -228.5zM773 555q0 166 -52 260t-159 94q-108 0 -160.5 -94
t-52.5 -260t52.5 -259t160.5 -93q107 0 159 93t52 259zM795 1173l-230 178l-230 -179l-91 84l222 223q40 43 96 43q55 0 94 -43l222 -223z" />
    <glyph glyph-name="uni1ED3" unicode="&#x1ed3;" horiz-adv-x="1124" 
d="M1042 553q0 -123 -32 -229.5t-93.5 -183.5t-150.5 -121t-204 -44q-116 0 -205.5 44t-151 121t-93 183.5t-31.5 229.5t31.5 228.5t93 182t151 120.5t205.5 44q115 0 204 -44t150.5 -120.5t93.5 -182t32 -228.5zM773 555q0 166 -52 260t-159 94q-108 0 -160.5 -94
t-52.5 -260t52.5 -259t160.5 -93q107 0 159 93t52 259zM836 1377l-239 270q19 62 114 62t136 -62l118 -269zM795 1173l-230 178l-230 -179l-91 84l222 223q40 43 96 43q55 0 94 -43l222 -223z" />
    <glyph glyph-name="uni1ED1" unicode="&#x1ed1;" horiz-adv-x="1124" 
d="M1042 553q0 -123 -32 -229.5t-93.5 -183.5t-150.5 -121t-204 -44q-116 0 -205.5 44t-151 121t-93 183.5t-31.5 229.5t31.5 228.5t93 182t151 120.5t205.5 44q115 0 204 -44t150.5 -120.5t93.5 -182t32 -228.5zM773 555q0 166 -52 260t-159 94q-108 0 -160.5 -94
t-52.5 -260t52.5 -259t160.5 -93q107 0 159 93t52 259zM785 1388l118 269q40 62 136 62q95 0 114 -62l-239 -270zM795 1173l-230 178l-230 -179l-91 84l222 223q40 43 96 43q55 0 94 -43l222 -223z" />
    <glyph glyph-name="uni1ED5" unicode="&#x1ed5;" horiz-adv-x="1124" 
d="M1042 553q0 -123 -32 -229.5t-93.5 -183.5t-150.5 -121t-204 -44q-116 0 -205.5 44t-151 121t-93 183.5t-31.5 229.5t31.5 228.5t93 182t151 120.5t205.5 44q115 0 204 -44t150.5 -120.5t93.5 -182t32 -228.5zM773 555q0 166 -52 260t-159 94q-108 0 -160.5 -94
t-52.5 -260t52.5 -259t160.5 -93q107 0 159 93t52 259zM808 1384l-10 147q31 7 56 16.5t43.5 23t30 30.5t11.5 38q0 38 -26 62t-77 15t-104 -54l-41 103q33 31 79 48t86 17q97 8 161 -43t64 -141q0 -37 -14 -66t-36.5 -51.5t-50 -38.5t-51.5 -26l-18 -80h-103zM795 1173
l-230 178l-230 -179l-91 84l222 223q40 43 96 43q55 0 94 -43l222 -223z" />
    <glyph glyph-name="uni1ED7" unicode="&#x1ed7;" horiz-adv-x="1124" 
d="M1042 553q0 -123 -32 -229.5t-93.5 -183.5t-150.5 -121t-204 -44q-116 0 -205.5 44t-151 121t-93 183.5t-31.5 229.5t31.5 228.5t93 182t151 120.5t205.5 44q115 0 204 -44t150.5 -120.5t93.5 -182t32 -228.5zM773 555q0 166 -52 260t-159 94q-108 0 -160.5 -94
t-52.5 -260t52.5 -259t160.5 -93q107 0 159 93t52 259zM910 1741q1 -83 -44.5 -150t-96.5 -74t-119 27q-49 25 -104.5 46.5t-82.5 -14.5t-36 -63l-88 25q4 81 41 144t109 76q31 6 77 -8.5t85.5 -37.5t71 -28t51.5 9t41 66zM795 1173l-230 178l-230 -179l-91 84l222 223
q40 43 96 43q55 0 94 -43l222 -223z" />
    <glyph glyph-name="uni1ED9" unicode="&#x1ed9;" horiz-adv-x="1124" 
d="M1042 553q0 -123 -32 -229.5t-93.5 -183.5t-150.5 -121t-204 -44q-116 0 -205.5 44t-151 121t-93 183.5t-31.5 229.5t31.5 228.5t93 182t151 120.5t205.5 44q115 0 204 -44t150.5 -120.5t93.5 -182t32 -228.5zM773 555q0 166 -52 260t-159 94q-108 0 -160.5 -94
t-52.5 -260t52.5 -259t160.5 -93q107 0 159 93t52 259zM693 -208q0 -53 -38.5 -91t-92.5 -38q-55 0 -94 38t-39 91t39 90t94 37q54 0 92.5 -37t38.5 -90zM795 1173l-230 178l-230 -179l-91 84l222 223q40 43 96 43q55 0 94 -43l222 -223z" />
    <glyph glyph-name="glyph217" unicode="&#xf9;" horiz-adv-x="1107" 
d="M988 55q-69 -35 -184 -57.5t-240 -22.5q-219 0 -331.5 97.5t-112.5 312.5v719h266v-725q0 -174 178 -174q54 0 94 7t62 17v875h268v-1049v0zM520 1199l-239 270q19 62 114 62t136 -62l118 -269z" />
    <glyph glyph-name="glyph218" unicode="&#xfa;" horiz-adv-x="1107" 
d="M988 55q-69 -35 -184 -57.5t-240 -22.5q-219 0 -331.5 97.5t-112.5 312.5v719h266v-725q0 -174 178 -174q54 0 94 7t62 17v875h268v-1049v0zM477 1200l118 269q41 62 136 62t114 -62l-239 -270z" />
    <glyph glyph-name="uni1EE7" unicode="&#x1ee7;" horiz-adv-x="1107" 
d="M988 55q-69 -35 -184 -57.5t-240 -22.5q-219 0 -331.5 97.5t-112.5 312.5v719h266v-725q0 -174 178 -174q54 0 94 7t62 17v875h268v-1049v0zM525 1178l-9 147q30 7 55 16.5t43.5 23t30 30.5t11.5 38q0 38 -26 62t-77 15t-104 -54l-41 103q33 31 79 48t86 17q97 8 161 -43
t64 -141q0 -37 -14 -66t-36.5 -51.5t-50 -38.5t-51.5 -26l-18 -80h-103z" />
    <glyph glyph-name="utilde" unicode="&#x169;" horiz-adv-x="1107" 
d="M988 55q-69 -35 -184 -57.5t-240 -22.5q-219 0 -331.5 97.5t-112.5 312.5v719h266v-725q0 -174 178 -174q54 0 94 7t62 17v875h268v-1049v0zM869 1425q1 -83 -44.5 -150t-96.5 -74t-119 27q-49 25 -104.5 46.5t-82.5 -14.5t-36 -63l-88 25q4 81 41 144t109 76
q32 6 77.5 -8.5t85.5 -37.5t71.5 -28t51 9t40.5 66z" />
    <glyph glyph-name="uni1EE5" unicode="&#x1ee5;" horiz-adv-x="1107" 
d="M988 55q-69 -35 -184 -57.5t-240 -22.5q-219 0 -331.5 97.5t-112.5 312.5v719h266v-725q0 -174 178 -174q54 0 94 7t62 17v875h268v-1049v0zM693 -208q0 -53 -38.5 -91t-92.5 -38q-55 0 -94 38t-39 91t39 90t94 37q54 0 92.5 -37t38.5 -90z" />
    <glyph glyph-name="uhorn" unicode="&#x1b0;" horiz-adv-x="1107" 
d="M988 946v-891q-69 -35 -184 -57.5t-240 -22.5q-219 0 -331.5 97.5t-112.5 312.5v719h266v-725q0 -174 178 -174q54 0 94 7t62 17v875h167l55 98q28 19 69.5 31t99.5 8q53 -5 85.5 -24.5t34.5 -35.5z" />
    <glyph glyph-name="uni1EEB" unicode="&#x1eeb;" horiz-adv-x="1107" 
d="M520 1199l-239 270q19 62 114 62t136 -62l118 -269zM988 946v-891q-69 -35 -184 -57.5t-240 -22.5q-219 0 -331.5 97.5t-112.5 312.5v719h266v-725q0 -174 178 -174q53 0 93 7t63 17v875h167l55 98q27 19 69 31t100 8q53 -5 85.5 -24.5t34.5 -35.5z" />
    <glyph glyph-name="uni1EE9" unicode="&#x1ee9;" horiz-adv-x="1107" 
d="M477 1200l118 269q40 62 136 62q95 0 114 -62l-239 -270zM988 946v-891q-69 -35 -184 -57.5t-240 -22.5q-219 0 -331.5 97.5t-112.5 312.5v719h266v-725q0 -174 178 -174q53 0 93 7t63 17v875h167l55 98q27 19 69 31t100 8q53 -5 85.5 -24.5t34.5 -35.5z" />
    <glyph glyph-name="uni1EED" unicode="&#x1eed;" horiz-adv-x="1107" 
d="M524 1178l-9 147q31 7 56 16.5t43.5 23t30 30.5t11.5 38q0 38 -26 62t-77 15t-104 -54l-41 103q33 31 79 48t86 17q97 8 161 -43t64 -141q0 -37 -14 -66t-36.5 -51.5t-50 -38.5t-51.5 -26l-18 -80h-104zM988 946v-891q-69 -35 -184 -57.5t-240 -22.5q-219 0 -331.5 97.5
t-112.5 312.5v719h266v-725q0 -174 178 -174q53 0 93 7t63 17v875h167l55 98q27 19 69 31t100 8q53 -5 85.5 -24.5t34.5 -35.5z" />
    <glyph glyph-name="uni1EEF" unicode="&#x1eef;" horiz-adv-x="1107" 
d="M869 1425q1 -83 -44.5 -150t-96.5 -74t-120 27q-48 25 -103.5 46.5t-83 -14.5t-35.5 -63l-88 25q4 81 41 144t109 76q31 6 77 -8.5t85.5 -37.5t71 -28t51.5 9t41 66zM988 946v-891q-69 -35 -184 -57.5t-240 -22.5q-219 0 -331.5 97.5t-112.5 312.5v719h266v-725
q0 -174 178 -174q53 0 93 7t63 17v875h167l55 98q27 19 69 31t100 8q53 -5 85.5 -24.5t34.5 -35.5z" />
    <glyph glyph-name="uni1EF1" unicode="&#x1ef1;" horiz-adv-x="1107" 
d="M693 -208q0 -53 -39 -91t-92 -38q-55 0 -94 38t-39 91t39 90t94 37q53 0 92 -37t39 -90zM988 946v-891q-69 -35 -184 -57.5t-240 -22.5q-219 0 -331.5 97.5t-112.5 312.5v719h266v-725q0 -174 178 -174q53 0 93 7t63 17v875h167l55 98q27 19 69 31t100 8
q53 -5 85.5 -24.5t34.5 -35.5z" />
    <glyph glyph-name="ohorn" unicode="&#x1a1;" horiz-adv-x="1124" 
d="M773 555q0 166 -52 260t-159 94q-108 0 -160.5 -94t-52.5 -260t52.5 -259t160.5 -93q107 0 159 93t52 259zM907 975q5 -6 10 -11q61 -77 93 -182.5t32 -228.5t-32 -229.5t-93.5 -183.5t-150.5 -121t-204 -44q-116 0 -205.5 44t-151 121t-93 183.5t-31.5 229.5t31.5 228.5
t93 182t151 120.5t205.5 44q114 0 203 -44l66 118q27 19 69 31t100 8q53 -5 85.5 -24.5t34.5 -35.5z" />
    <glyph glyph-name="uni1EDD" unicode="&#x1edd;" horiz-adv-x="1124" 
d="M773 555q0 166 -52 260t-159 94q-108 0 -160.5 -94t-52.5 -260t52.5 -259t160.5 -93q107 0 159 93t52 259zM520 1199l-239 270q19 62 114 62t136 -62l118 -269zM907 975q5 -6 10 -11q61 -77 92.5 -182.5t31.5 -228.5t-31.5 -229.5t-93 -183.5t-150.5 -121t-204 -44
q-117 0 -206 44t-150.5 121t-93 183.5t-31.5 229.5t31.5 228.5t93 182t150.5 120.5t206 44q114 0 203 -44l66 118q27 19 69 31t100 8q53 -5 85.5 -24.5t34.5 -35.5z" />
    <glyph glyph-name="uni1EDB" unicode="&#x1edb;" horiz-adv-x="1124" 
d="M773 555q0 166 -52 260t-159 94q-108 0 -160.5 -94t-52.5 -260t52.5 -259t160.5 -93q107 0 159 93t52 259zM443 1200l118 269q40 62 136 62q95 0 114 -62l-239 -270zM907 975q5 -6 10 -11q61 -77 92.5 -182.5t31.5 -228.5t-31.5 -229.5t-93 -183.5t-150.5 -121t-204 -44
q-117 0 -206 44t-150.5 121t-93 183.5t-31.5 229.5t31.5 228.5t93 182t150.5 120.5t206 44q114 0 203 -44l66 118q27 19 69 31t100 8q53 -5 85.5 -24.5t34.5 -35.5z" />
    <glyph glyph-name="uni1EDF" unicode="&#x1edf;" horiz-adv-x="1124" 
d="M773 555q0 166 -52 260t-159 94q-108 0 -160.5 -94t-52.5 -260t52.5 -259t160.5 -93q107 0 159 93t52 259zM524 1178l-9 147q31 7 56 16.5t43.5 23t30 30.5t11.5 38q0 38 -26 62t-77 15t-104 -54l-41 103q33 31 79 48t86 17q97 8 161 -43t64 -141q0 -37 -14 -66
t-36.5 -51.5t-50 -38.5t-51.5 -26l-18 -80h-104zM907 975q5 -6 10 -11q61 -77 92.5 -182.5t31.5 -228.5t-31.5 -229.5t-93 -183.5t-150.5 -121t-204 -44q-117 0 -206 44t-150.5 121t-93 183.5t-31.5 229.5t31.5 228.5t93 182t150.5 120.5t206 44q114 0 203 -44l66 118
q27 19 69 31t100 8q53 -5 85.5 -24.5t34.5 -35.5z" />
    <glyph glyph-name="uni1EE1" unicode="&#x1ee1;" horiz-adv-x="1124" 
d="M773 555q0 166 -52 260t-159 94q-108 0 -160.5 -94t-52.5 -260t52.5 -259t160.5 -93q107 0 159 93t52 259zM869 1425q1 -83 -44.5 -150t-96.5 -74t-120 27q-48 25 -103.5 46.5t-83 -14.5t-35.5 -63l-88 25q4 81 41 144t109 76q31 6 77 -8.5t85.5 -37.5t71 -28t51.5 9
t41 66zM907 975q5 -6 10 -11q61 -77 92.5 -182.5t31.5 -228.5t-31.5 -229.5t-93 -183.5t-150.5 -121t-204 -44q-117 0 -206 44t-150.5 121t-93 183.5t-31.5 229.5t31.5 228.5t93 182t150.5 120.5t206 44q114 0 203 -44l66 118q27 19 69 31t100 8q53 -5 85.5 -24.5
t34.5 -35.5z" />
    <glyph glyph-name="uni1EE3" unicode="&#x1ee3;" horiz-adv-x="1124" 
d="M773 555q0 166 -52 260t-159 94q-108 0 -160.5 -94t-52.5 -260t52.5 -259t160.5 -93q107 0 159 93t52 259zM693 -208q0 -53 -39 -91t-92 -38q-55 0 -94 38t-39 91t39 90t94 37q53 0 92 -37t39 -90zM907 975q5 -6 10 -11q61 -77 92.5 -182.5t31.5 -228.5t-31.5 -229.5
t-93 -183.5t-150.5 -121t-204 -44q-117 0 -206 44t-150.5 121t-93 183.5t-31.5 229.5t31.5 228.5t93 182t150.5 120.5t206 44q114 0 203 -44l66 118q27 19 69 31t100 8q53 -5 85.5 -24.5t34.5 -35.5z" />
    <glyph glyph-name="ygrave" unicode="&#x1ef3;" horiz-adv-x="1134" 
d="M550 -440h-280l157 440l-399 1104h303l199 -694q10 -31 16 -63t10 -56q7 -29 9 -55h4q2 26 8 55q4 24 11 56t18 63l198 694h301zM520 1199l-239 270q19 62 115 62q95 0 135 -62l119 -269z" />
    <glyph glyph-name="glyph235" unicode="&#xfd;" horiz-adv-x="1134" 
d="M550 -440h-280l157 440l-399 1104h303l199 -694q10 -31 16 -63t10 -56q7 -29 9 -55h4q2 26 8 55q4 24 11 56t18 63l198 694h301zM477 1200l118 269q41 62 136 62t115 -62l-240 -270z" />
    <glyph glyph-name="uni1EF7" unicode="&#x1ef7;" horiz-adv-x="1134" 
d="M550 -440h-280l157 440l-399 1104h303l199 -694q10 -31 16 -63t10 -56q7 -29 9 -55h4q2 26 8 55q4 24 11 56t18 63l198 694h301zM525 1178l-9 147q30 7 55 16.5t43.5 23t30 30.5t11.5 38q0 38 -26 62t-77 15t-104 -54l-41 103q33 31 79 48t86 17q97 8 161 -43t64 -141
q0 -37 -14 -66t-36 -51.5t-50 -38.5t-52 -26l-18 -80h-103z" />
    <glyph glyph-name="uni1EF9" unicode="&#x1ef9;" horiz-adv-x="1134" 
d="M550 -440h-280l157 440l-399 1104h303l199 -694q10 -31 16 -63t10 -56q7 -29 9 -55h4q2 26 8 55q4 24 11 56t18 63l198 694h301zM869 1425q1 -83 -44 -150t-96 -74t-120 27q-49 25 -104.5 46.5t-82.5 -14.5t-36 -63l-88 25q4 81 41.5 144t108.5 76q32 6 77.5 -8.5
t85.5 -37.5t71.5 -28t51 9t40.5 66z" />
    <glyph glyph-name="uni1EF5" unicode="&#x1ef5;" horiz-adv-x="1134" 
d="M550 -440h-280l157 440l-399 1104h303l199 -694q10 -31 16 -63t10 -56q7 -29 9 -55h4q2 26 8 55q4 24 11 56t18 63l198 694h301zM944 -208q0 -53 -39 -91t-92 -38q-56 0 -95 38t-39 91t39 90t95 37q53 0 92 -37t39 -90z" />
    <glyph glyph-name="divide" unicode="&#xf7;" horiz-adv-x="1077" 
d="M675 1034q0 -59 -40 -101t-97 -42q-56 0 -95.5 42t-39.5 101q0 60 39.5 101t95.5 41q57 0 97 -41t40 -101zM120 569v193h838v-193h-838zM675 297q0 -59 -40 -100t-97 -41q-56 0 -95.5 41t-39.5 100t39.5 101t95.5 42q57 0 97 -42t40 -101z" />
    <glyph glyph-name="ugrave" horiz-adv-x="582" 
 />
    <glyph glyph-name="uacute" horiz-adv-x="580" 
 />
    <glyph glyph-name="yacute" horiz-adv-x="629" 
 />
    <glyph glyph-name="Ccaron" unicode="&#x10c;" horiz-adv-x="1274" 
 />
    <glyph glyph-name="ccaron" unicode="&#x10d;" horiz-adv-x="922" 
 />
    <glyph glyph-name="Dslash" unicode="&#xd0;" horiz-adv-x="1261" 
d="M1171 741q0 -374 -164.5 -570t-463.5 -196q-121 0 -223.5 22.5t-168.5 57.5v596h-100v207h100v569q66 35 170.5 57.5t221.5 22.5q299 0 463.5 -195.5t164.5 -570.5zM899 741q0 138 -25.5 237t-70.5 163.5t-107.5 94.5t-136.5 30q-41 0 -78 -5.5t-59 -15.5v-387h192v-207
h-192v-415q20 -11 57 -15t80 -4q74 0 136.5 29.5t107.5 94.5t70.5 163t25.5 237z" />
    <glyph glyph-name="Dslash" unicode="&#x110;" horiz-adv-x="1261" 
d="M1171 741q0 -374 -164.5 -570t-463.5 -196q-121 0 -223.5 22.5t-168.5 57.5v596h-100v207h100v569q66 35 170.5 57.5t221.5 22.5q299 0 463.5 -195.5t164.5 -570.5zM899 741q0 138 -25.5 237t-70.5 163.5t-107.5 94.5t-136.5 30q-41 0 -78 -5.5t-59 -15.5v-387h192v-207
h-192v-415q20 -11 57 -15t80 -4q74 0 136.5 29.5t107.5 94.5t70.5 163t25.5 237z" />
    <glyph glyph-name="dcroat" unicode="&#x111;" horiz-adv-x="1118" 
d="M999 1264v-1209q-60 -32 -163.5 -56t-224.5 -24q-258 0 -394 149.5t-136 420.5q0 127 31.5 232.5t94 180t156 115.5t214.5 41q43 0 85 -6t66 -16v172h-293v166h293v178h271v-178h131v-166h-131zM728 883q-16 8 -52 14t-71 6q-127 0 -191.5 -98t-64.5 -256
q0 -168 65.5 -261t190.5 -93q35 0 71 6t52 16v666z" />
    <glyph glyph-name="quoteleft" unicode="&#x2018;" horiz-adv-x="608" 
d="M352 1026q-27 -41 -68 -69.5t-96 -28.5q-54 0 -82.5 30.5t-32.5 67.5l281 582h180z" />
    <glyph glyph-name="quoteright" unicode="&#x2019;" horiz-adv-x="608" 
d="M253 942h-180l182 582q27 41 67 69.5t95 28.5q53 0 83 -30.5t34 -67.5z" />
    <glyph glyph-name="quotedblleft" unicode="&#x201c;" horiz-adv-x="1038" 
d="M782 1026q-27 -41 -67 -69.5t-95 -28.5q-53 0 -83 30.5t-34 67.5l281 582h180zM352 1026q-27 -41 -68 -69.5t-96 -28.5q-54 0 -82.5 30.5t-32.5 67.5l281 582h180z" />
    <glyph glyph-name="quotedblright" unicode="&#x201d;" horiz-adv-x="1038" 
d="M683 942h-180l182 582q27 41 67 69.5t95 28.5q53 0 83 -30.5t34 -67.5zM253 942h-180l182 582q27 41 67 69.5t95 28.5q53 0 83 -30.5t34 -67.5z" />
    <glyph glyph-name="ellipsis" unicode="&#x2026;" horiz-adv-x="1599" 
d="M968 158q0 -37 -13 -69t-35.5 -55.5t-53.5 -37.5t-66 -14q-34 0 -65 14t-54.5 37.5t-37 55.5t-13.5 69t13.5 68.5t37 55t54.5 38t65 14.5q35 0 66 -14.5t53.5 -38t35.5 -55t13 -68.5zM436 158q0 -37 -13.5 -69t-36 -55.5t-53 -37.5t-65.5 -14t-66.5 14t-54 37.5t-36 55.5
t-13.5 69t13.5 68.5t36 55t54 38t66.5 14.5t65.5 -14.5t53 -38t36 -55t13.5 -68.5zM1501 158q0 -37 -13.5 -69t-36 -55.5t-53 -37.5t-65.5 -14t-65.5 14t-54 37.5t-37 55.5t-13.5 69t13.5 68.5t37 55t54 38t65.5 14.5t65.5 -14.5t53 -38t36 -55t13.5 -68.5z" />
    <glyph glyph-name="endash" unicode="&#x2013;" horiz-adv-x="823" 
d="M-8 557v217h840v-217h-840z" />
    <glyph glyph-name="emdash" unicode="&#x2014;" horiz-adv-x="1646" 
d="M139 557v217h1368v-217h-1368z" />
    <glyph glyph-name="minus" unicode="&#x2212;" horiz-adv-x="1077" 
d="M120 557v217h838v-217h-838z" />
    <glyph glyph-name="ch270" unicode="&#xb7;" horiz-adv-x="534" 
d="M436 666q0 -37 -13.5 -69t-36 -55.5t-53 -38t-65.5 -14.5t-66.5 14.5t-54 38t-36 55.5t-13.5 69q0 36 13.5 68t36 55.5t54 38t66.5 14.5t65.5 -14.5t53 -38t36 -55.5t13.5 -68z" />
    <glyph glyph-name="ch270" unicode="&#x2219;" horiz-adv-x="534" 
d="M436 666q0 -37 -13.5 -69t-36 -55.5t-53 -38t-65.5 -14.5t-66.5 14.5t-54 38t-36 55.5t-13.5 69q0 36 13.5 68t36 55.5t54 38t66.5 14.5t65.5 -14.5t53 -38t36 -55.5t13.5 -68z" />
    </font>
</defs>
</svg>
